<mxfile host="app.diagrams.net" agent="Mozilla/5.0 (Windows NT 10.0; Win64; x64) AppleWebKit/537.36 (KHTML, like Gecko) Chrome/128.0.0.0 Safari/537.36" version="24.7.16">
  <diagram name="Page-1" id="PRZS8lZKRYY2VSGGr3TJ">
    <mxGraphModel dx="1456" dy="2372" grid="1" gridSize="10" guides="1" tooltips="1" connect="1" arrows="1" fold="1" page="1" pageScale="1" pageWidth="1169" pageHeight="827" math="0" shadow="0">
      <root>
        <mxCell id="0" />
        <mxCell id="1" parent="0" />
        <mxCell id="M1QpUfeUCg4roTGGK431-6" value="" style="group" vertex="1" connectable="0" parent="1">
          <mxGeometry x="1210" y="40" width="1920" height="1310" as="geometry" />
        </mxCell>
        <mxCell id="l2NazpN1zg4X8K2ymPKM-34" value="" style="strokeWidth=1;shadow=0;dashed=0;align=center;html=1;shape=mxgraph.mockup.containers.browserWindow;rSize=0;strokeColor=#666666;strokeColor2=#008cff;strokeColor3=#c4c4c4;mainText=,;recursiveResize=0;" parent="M1QpUfeUCg4roTGGK431-6" vertex="1">
          <mxGeometry width="1920" height="1310" as="geometry" />
        </mxCell>
        <mxCell id="M1QpUfeUCg4roTGGK431-4" value="" style="rounded=0;whiteSpace=wrap;html=1;strokeColor=none;fillColor=#f1f6fd;" vertex="1" parent="M1QpUfeUCg4roTGGK431-6">
          <mxGeometry y="110" width="1920" height="1200" as="geometry" />
        </mxCell>
        <mxCell id="M1QpUfeUCg4roTGGK431-14" value="" style="group;fontStyle=0" vertex="1" connectable="0" parent="M1QpUfeUCg4roTGGK431-6">
          <mxGeometry x="70" y="140" width="980" height="80" as="geometry" />
        </mxCell>
        <mxCell id="M1QpUfeUCg4roTGGK431-5" value="" style="rounded=1;whiteSpace=wrap;html=1;shadow=1;fillColor=default;strokeColor=none;" vertex="1" parent="M1QpUfeUCg4roTGGK431-14">
          <mxGeometry width="930" height="80" as="geometry" />
        </mxCell>
        <mxCell id="M1QpUfeUCg4roTGGK431-11" value="&lt;span&gt;Clear all&lt;/span&gt;" style="html=1;shadow=0;dashed=0;shape=mxgraph.bootstrap.rrect;rSize=5;strokeColor=#8490B3;strokeWidth=2;fillColor=none;fontColor=#8490B3;whiteSpace=wrap;align=center;verticalAlign=middle;spacingLeft=0;fontStyle=1;fontSize=16;spacing=5;fontFamily=DM Sans;fontSource=https%3A%2F%2Ffonts.googleapis.com%2Fcss%3Ffamily%3DDM%2BSans;" vertex="1" parent="M1QpUfeUCg4roTGGK431-14">
          <mxGeometry x="780" y="20" width="100" height="40" as="geometry" />
        </mxCell>
        <mxCell id="M1QpUfeUCg4roTGGK431-12" value="Download" style="html=1;shadow=0;dashed=0;shape=mxgraph.bootstrap.rrect;rSize=5;strokeColor=#00cbb7;strokeWidth=2;fillColor=#00cbb7;fontColor=#FFFFFF;whiteSpace=wrap;align=center;verticalAlign=middle;spacingLeft=0;fontStyle=1;fontSize=16;spacing=5;fontFamily=DM Sans;fontSource=https%3A%2F%2Ffonts.googleapis.com%2Fcss%3Ffamily%3DDM%2BSans;" vertex="1" parent="M1QpUfeUCg4roTGGK431-14">
          <mxGeometry x="650" y="20" width="110" height="40" as="geometry" />
        </mxCell>
        <mxCell id="M1QpUfeUCg4roTGGK431-13" value="CV Gen" style="text;html=1;align=left;verticalAlign=middle;whiteSpace=wrap;rounded=0;fontSize=36;fontFamily=Arizonia;fontSource=https%3A%2F%2Ffonts.googleapis.com%2Fcss%3Ffamily%3DArizonia;fontColor=#00a9ad;" vertex="1" parent="M1QpUfeUCg4roTGGK431-14">
          <mxGeometry x="40" y="25" width="250" height="30" as="geometry" />
        </mxCell>
        <mxCell id="M1QpUfeUCg4roTGGK431-21" value="&lt;font face=&quot;Courier New&quot;&gt;clearing all would trigger a modal to confirm as action cannot be undone&lt;/font&gt;" style="rounded=1;whiteSpace=wrap;html=1;fillColor=#fff2cc;strokeColor=#d6b656;" vertex="1" parent="M1QpUfeUCg4roTGGK431-14">
          <mxGeometry x="830" y="-65" width="150" height="90" as="geometry" />
        </mxCell>
        <mxCell id="M1QpUfeUCg4roTGGK431-16" value="" style="rounded=1;whiteSpace=wrap;html=1;shadow=1;fillColor=default;strokeColor=none;arcSize=4;" vertex="1" parent="M1QpUfeUCg4roTGGK431-6">
          <mxGeometry x="70" y="250" width="930" height="350" as="geometry" />
        </mxCell>
        <mxCell id="M1QpUfeUCg4roTGGK431-20" value="&lt;font data-font-src=&quot;https://fonts.googleapis.com/css?family=DM+Sans&quot; face=&quot;DM Sans&quot; style=&quot;font-size: 20px;&quot;&gt;Personal Details&lt;/font&gt;" style="text;html=1;align=left;verticalAlign=middle;whiteSpace=wrap;rounded=0;fontSize=20;fontFamily=Libre Baskerville;fontSource=https%3A%2F%2Ffonts.googleapis.com%2Fcss%3Ffamily%3DLibre%2BBaskerville;fontColor=#25677b;fontStyle=1" vertex="1" parent="M1QpUfeUCg4roTGGK431-6">
          <mxGeometry x="110" y="288" width="220" height="30" as="geometry" />
        </mxCell>
        <mxCell id="M1QpUfeUCg4roTGGK431-25" value="" style="group;fontFamily=DM Sans;fontSource=https%3A%2F%2Ffonts.googleapis.com%2Fcss%3Ffamily%3DDM%2BSans;" vertex="1" connectable="0" parent="M1QpUfeUCg4roTGGK431-6">
          <mxGeometry x="110" y="350" width="840" height="70" as="geometry" />
        </mxCell>
        <mxCell id="M1QpUfeUCg4roTGGK431-23" value="&lt;font data-font-src=&quot;https://fonts.googleapis.com/css?family=DM+Sans&quot; face=&quot;DM Sans&quot; style=&quot;font-size: 16px;&quot;&gt;Full name&lt;/font&gt;" style="fillColor=none;strokeColor=none;html=1;fontSize=12;fontStyle=0;align=left;fontColor=#596780;fontStyle=1;fontSize=11;fontFamily=Helvetica;labelBackgroundColor=default;" vertex="1" parent="M1QpUfeUCg4roTGGK431-25">
          <mxGeometry width="840" height="20" as="geometry" />
        </mxCell>
        <mxCell id="M1QpUfeUCg4roTGGK431-24" value="&lt;font face=&quot;DM Sans&quot; data-font-src=&quot;https://fonts.googleapis.com/css?family=DM+Sans&quot;&gt;Jane Smith&lt;/font&gt;" style="rounded=1;arcSize=9;fillColor=#F7F8F9;align=left;spacingLeft=5;strokeColor=#DEE1E6;html=1;strokeWidth=2;fontSize=16;fontFamily=Helvetica;fontColor=#B3B3B3;labelBackgroundColor=none;" vertex="1" parent="M1QpUfeUCg4roTGGK431-25">
          <mxGeometry y="25" width="840" height="45" as="geometry" />
        </mxCell>
        <mxCell id="M1QpUfeUCg4roTGGK431-26" value="" style="group;fontFamily=DM Sans;fontSource=https%3A%2F%2Ffonts.googleapis.com%2Fcss%3Ffamily%3DDM%2BSans;" vertex="1" connectable="0" parent="M1QpUfeUCg4roTGGK431-6">
          <mxGeometry x="110" y="452" width="530" height="70" as="geometry" />
        </mxCell>
        <mxCell id="M1QpUfeUCg4roTGGK431-27" value="&lt;font face=&quot;DM Sans&quot;&gt;&lt;span style=&quot;font-size: 16px;&quot;&gt;Email&lt;/span&gt;&lt;/font&gt;" style="fillColor=none;strokeColor=none;html=1;fontSize=12;fontStyle=0;align=left;fontColor=#596780;fontStyle=1;fontSize=11;fontFamily=Helvetica;labelBackgroundColor=default;" vertex="1" parent="M1QpUfeUCg4roTGGK431-26">
          <mxGeometry width="530" height="20" as="geometry" />
        </mxCell>
        <mxCell id="M1QpUfeUCg4roTGGK431-28" value="&lt;font face=&quot;DM Sans&quot; data-font-src=&quot;https://fonts.googleapis.com/css?family=DM+Sans&quot;&gt;jane.smith@gmail.com&lt;/font&gt;" style="rounded=1;arcSize=9;fillColor=#F7F8F9;align=left;spacingLeft=5;strokeColor=#DEE1E6;html=1;strokeWidth=2;fontSize=16;fontFamily=Helvetica;fontColor=#B3B3B3;labelBackgroundColor=none;" vertex="1" parent="M1QpUfeUCg4roTGGK431-26">
          <mxGeometry y="25" width="530" height="45" as="geometry" />
        </mxCell>
        <mxCell id="M1QpUfeUCg4roTGGK431-29" value="" style="group;fontFamily=DM Sans;fontSource=https%3A%2F%2Ffonts.googleapis.com%2Fcss%3Ffamily%3DDM%2BSans;" vertex="1" connectable="0" parent="M1QpUfeUCg4roTGGK431-6">
          <mxGeometry x="680" y="452" width="270" height="70" as="geometry" />
        </mxCell>
        <mxCell id="M1QpUfeUCg4roTGGK431-30" value="&lt;font face=&quot;DM Sans&quot;&gt;&lt;span style=&quot;font-size: 16px;&quot;&gt;Phone number&lt;/span&gt;&lt;/font&gt;" style="fillColor=none;strokeColor=none;html=1;fontSize=12;fontStyle=0;align=left;fontColor=#596780;fontStyle=1;fontSize=11;fontFamily=Helvetica;labelBackgroundColor=default;" vertex="1" parent="M1QpUfeUCg4roTGGK431-29">
          <mxGeometry width="270" height="20" as="geometry" />
        </mxCell>
        <mxCell id="M1QpUfeUCg4roTGGK431-31" value="&lt;font face=&quot;DM Sans&quot; data-font-src=&quot;https://fonts.googleapis.com/css?family=DM+Sans&quot;&gt;+61 412 345 678&lt;/font&gt;" style="rounded=1;arcSize=9;fillColor=#F7F8F9;align=left;spacingLeft=5;strokeColor=#DEE1E6;html=1;strokeWidth=2;fontSize=16;fontFamily=Helvetica;fontColor=#B3B3B3;labelBackgroundColor=none;" vertex="1" parent="M1QpUfeUCg4roTGGK431-29">
          <mxGeometry y="25" width="270" height="45" as="geometry" />
        </mxCell>
        <mxCell id="M1QpUfeUCg4roTGGK431-32" value="" style="shape=image;html=1;verticalAlign=top;verticalLabelPosition=bottom;labelBackgroundColor=none;imageAspect=0;aspect=fixed;image=https://cdn3.iconfinder.com/data/icons/user-interface-169/32/chevron-bottom-128.png;fontFamily=Helvetica;fontSize=11;fontColor=none;noLabel=1;rotation=-180;" vertex="1" parent="M1QpUfeUCg4roTGGK431-6">
          <mxGeometry x="925" y="293" width="25" height="25" as="geometry" />
        </mxCell>
        <mxCell id="M1QpUfeUCg4roTGGK431-55" value="" style="group" vertex="1" connectable="0" parent="M1QpUfeUCg4roTGGK431-6">
          <mxGeometry x="70" y="650" width="930" height="110" as="geometry" />
        </mxCell>
        <mxCell id="M1QpUfeUCg4roTGGK431-51" value="" style="rounded=1;whiteSpace=wrap;html=1;shadow=1;fillColor=default;strokeColor=none;arcSize=16;" vertex="1" parent="M1QpUfeUCg4roTGGK431-55">
          <mxGeometry width="930" height="110" as="geometry" />
        </mxCell>
        <mxCell id="M1QpUfeUCg4roTGGK431-52" value="&lt;font style=&quot;font-size: 20px;&quot;&gt;Education&lt;/font&gt;" style="text;html=1;align=left;verticalAlign=middle;whiteSpace=wrap;rounded=0;fontSize=20;fontFamily=DM Sans;fontSource=https%3A%2F%2Ffonts.googleapis.com%2Fcss%3Ffamily%3DDM%2BSans;fontColor=#25677b;fontStyle=1" vertex="1" parent="M1QpUfeUCg4roTGGK431-55">
          <mxGeometry x="40" y="38" width="220" height="30" as="geometry" />
        </mxCell>
        <mxCell id="M1QpUfeUCg4roTGGK431-53" value="" style="shape=image;html=1;verticalAlign=top;verticalLabelPosition=bottom;labelBackgroundColor=none;imageAspect=0;aspect=fixed;image=https://cdn3.iconfinder.com/data/icons/user-interface-169/32/chevron-bottom-128.png;fontFamily=Helvetica;fontSize=11;fontColor=none;noLabel=1;rotation=0;" vertex="1" parent="M1QpUfeUCg4roTGGK431-55">
          <mxGeometry x="855" y="43" width="25" height="25" as="geometry" />
        </mxCell>
        <mxCell id="M1QpUfeUCg4roTGGK431-60" value="&lt;font face=&quot;Courier New&quot;&gt;opening a card closes the other cards&lt;/font&gt;" style="rounded=1;whiteSpace=wrap;html=1;fillColor=#fff2cc;strokeColor=#d6b656;" vertex="1" parent="M1QpUfeUCg4roTGGK431-55">
          <mxGeometry x="690" y="14" width="130" height="78" as="geometry" />
        </mxCell>
        <mxCell id="M1QpUfeUCg4roTGGK431-56" value="" style="group" vertex="1" connectable="0" parent="M1QpUfeUCg4roTGGK431-6">
          <mxGeometry x="70" y="800" width="930" height="110" as="geometry" />
        </mxCell>
        <mxCell id="M1QpUfeUCg4roTGGK431-57" value="" style="rounded=1;whiteSpace=wrap;html=1;shadow=1;fillColor=default;strokeColor=none;arcSize=16;" vertex="1" parent="M1QpUfeUCg4roTGGK431-56">
          <mxGeometry width="930" height="110" as="geometry" />
        </mxCell>
        <mxCell id="M1QpUfeUCg4roTGGK431-58" value="&lt;font style=&quot;font-size: 20px;&quot;&gt;Experience&lt;/font&gt;" style="text;html=1;align=left;verticalAlign=middle;whiteSpace=wrap;rounded=0;fontSize=20;fontFamily=DM Sans;fontSource=https%3A%2F%2Ffonts.googleapis.com%2Fcss%3Ffamily%3DDM%2BSans;fontColor=#25677b;fontStyle=1" vertex="1" parent="M1QpUfeUCg4roTGGK431-56">
          <mxGeometry x="40" y="38" width="220" height="30" as="geometry" />
        </mxCell>
        <mxCell id="M1QpUfeUCg4roTGGK431-59" value="" style="shape=image;html=1;verticalAlign=top;verticalLabelPosition=bottom;labelBackgroundColor=none;imageAspect=0;aspect=fixed;image=https://cdn3.iconfinder.com/data/icons/user-interface-169/32/chevron-bottom-128.png;fontFamily=Helvetica;fontSize=11;fontColor=none;noLabel=1;rotation=0;" vertex="1" parent="M1QpUfeUCg4roTGGK431-56">
          <mxGeometry x="855" y="43" width="25" height="25" as="geometry" />
        </mxCell>
        <mxCell id="M1QpUfeUCg4roTGGK431-63" value="" style="group" vertex="1" connectable="0" parent="M1QpUfeUCg4roTGGK431-6">
          <mxGeometry x="1100" y="140" width="737" height="1080" as="geometry" />
        </mxCell>
        <mxCell id="M1QpUfeUCg4roTGGK431-7" value="" style="rounded=1;whiteSpace=wrap;html=1;shadow=1;fillColor=default;strokeColor=none;arcSize=0;fontColor=default;" vertex="1" parent="M1QpUfeUCg4roTGGK431-63">
          <mxGeometry width="737" height="1080" as="geometry" />
        </mxCell>
        <mxCell id="M1QpUfeUCg4roTGGK431-61" value="" style="rounded=0;whiteSpace=wrap;html=1;fontFamily=Helvetica;fontSize=11;fontColor=default;labelBackgroundColor=default;fillColor=#2F4858;strokeColor=none;" vertex="1" parent="M1QpUfeUCg4roTGGK431-63">
          <mxGeometry width="737" height="140" as="geometry" />
        </mxCell>
        <mxCell id="M1QpUfeUCg4roTGGK431-62" value="&lt;font style=&quot;font-size: 36px;&quot; color=&quot;#ffffff&quot;&gt;Jane Smith&lt;/font&gt;" style="text;html=1;align=center;verticalAlign=middle;whiteSpace=wrap;rounded=0;fontFamily=Georgia;fontSize=36;fontColor=default;labelBackgroundColor=none;" vertex="1" parent="M1QpUfeUCg4roTGGK431-63">
          <mxGeometry x="278.6219512195122" y="40" width="197.7317073170732" height="30" as="geometry" />
        </mxCell>
        <mxCell id="M1QpUfeUCg4roTGGK431-64" value="" style="group" vertex="1" connectable="0" parent="1">
          <mxGeometry x="5430" y="30" width="1920" height="1390" as="geometry" />
        </mxCell>
        <mxCell id="M1QpUfeUCg4roTGGK431-65" value="" style="strokeWidth=1;shadow=0;dashed=0;align=center;html=1;shape=mxgraph.mockup.containers.browserWindow;rSize=0;strokeColor=#666666;strokeColor2=#008cff;strokeColor3=#c4c4c4;mainText=,;recursiveResize=0;" vertex="1" parent="M1QpUfeUCg4roTGGK431-64">
          <mxGeometry width="1920" height="1390" as="geometry" />
        </mxCell>
        <mxCell id="M1QpUfeUCg4roTGGK431-66" value="" style="rounded=0;whiteSpace=wrap;html=1;strokeColor=none;fillColor=#f1f6fd;" vertex="1" parent="M1QpUfeUCg4roTGGK431-64">
          <mxGeometry y="110" width="1920" height="1280" as="geometry" />
        </mxCell>
        <mxCell id="M1QpUfeUCg4roTGGK431-67" value="" style="group;fontStyle=0" vertex="1" connectable="0" parent="M1QpUfeUCg4roTGGK431-64">
          <mxGeometry x="70" y="140" width="930" height="80" as="geometry" />
        </mxCell>
        <mxCell id="M1QpUfeUCg4roTGGK431-68" value="" style="rounded=1;whiteSpace=wrap;html=1;shadow=1;fillColor=default;strokeColor=none;" vertex="1" parent="M1QpUfeUCg4roTGGK431-67">
          <mxGeometry width="930" height="80" as="geometry" />
        </mxCell>
        <mxCell id="M1QpUfeUCg4roTGGK431-69" value="&lt;span&gt;Clear all&lt;/span&gt;" style="html=1;shadow=0;dashed=0;shape=mxgraph.bootstrap.rrect;rSize=5;strokeColor=#8490B3;strokeWidth=2;fillColor=none;fontColor=#8490B3;whiteSpace=wrap;align=center;verticalAlign=middle;spacingLeft=0;fontStyle=1;fontSize=16;spacing=5;fontFamily=DM Sans;fontSource=https%3A%2F%2Ffonts.googleapis.com%2Fcss%3Ffamily%3DDM%2BSans;" vertex="1" parent="M1QpUfeUCg4roTGGK431-67">
          <mxGeometry x="780" y="20" width="100" height="40" as="geometry" />
        </mxCell>
        <mxCell id="M1QpUfeUCg4roTGGK431-70" value="Download" style="html=1;shadow=0;dashed=0;shape=mxgraph.bootstrap.rrect;rSize=5;strokeColor=#00cbb7;strokeWidth=2;fillColor=#00cbb7;fontColor=#FFFFFF;whiteSpace=wrap;align=center;verticalAlign=middle;spacingLeft=0;fontStyle=1;fontSize=16;spacing=5;fontFamily=DM Sans;fontSource=https%3A%2F%2Ffonts.googleapis.com%2Fcss%3Ffamily%3DDM%2BSans;" vertex="1" parent="M1QpUfeUCg4roTGGK431-67">
          <mxGeometry x="650" y="20" width="110" height="40" as="geometry" />
        </mxCell>
        <mxCell id="M1QpUfeUCg4roTGGK431-71" value="CV Gen" style="text;html=1;align=left;verticalAlign=middle;whiteSpace=wrap;rounded=0;fontSize=36;fontFamily=Arizonia;fontSource=https%3A%2F%2Ffonts.googleapis.com%2Fcss%3Ffamily%3DArizonia;fontColor=#00a9ad;" vertex="1" parent="M1QpUfeUCg4roTGGK431-67">
          <mxGeometry x="40" y="25" width="250" height="30" as="geometry" />
        </mxCell>
        <mxCell id="M1QpUfeUCg4roTGGK431-95" value="" style="group" vertex="1" connectable="0" parent="M1QpUfeUCg4roTGGK431-64">
          <mxGeometry x="70" y="1190" width="930" height="110" as="geometry" />
        </mxCell>
        <mxCell id="M1QpUfeUCg4roTGGK431-96" value="" style="rounded=1;whiteSpace=wrap;html=1;shadow=1;fillColor=default;strokeColor=none;arcSize=16;" vertex="1" parent="M1QpUfeUCg4roTGGK431-95">
          <mxGeometry width="930" height="110" as="geometry" />
        </mxCell>
        <mxCell id="M1QpUfeUCg4roTGGK431-97" value="&lt;font style=&quot;font-size: 20px;&quot;&gt;Experience&lt;/font&gt;" style="text;html=1;align=left;verticalAlign=middle;whiteSpace=wrap;rounded=0;fontSize=20;fontFamily=DM Sans;fontSource=https%3A%2F%2Ffonts.googleapis.com%2Fcss%3Ffamily%3DDM%2BSans;fontColor=#25677b;fontStyle=1" vertex="1" parent="M1QpUfeUCg4roTGGK431-95">
          <mxGeometry x="40" y="38" width="220" height="30" as="geometry" />
        </mxCell>
        <mxCell id="M1QpUfeUCg4roTGGK431-98" value="" style="shape=image;html=1;verticalAlign=top;verticalLabelPosition=bottom;labelBackgroundColor=none;imageAspect=0;aspect=fixed;image=https://cdn3.iconfinder.com/data/icons/user-interface-169/32/chevron-bottom-128.png;fontFamily=Helvetica;fontSize=11;fontColor=none;noLabel=1;rotation=0;" vertex="1" parent="M1QpUfeUCg4roTGGK431-95">
          <mxGeometry x="855" y="43" width="25" height="25" as="geometry" />
        </mxCell>
        <mxCell id="M1QpUfeUCg4roTGGK431-99" value="" style="group" vertex="1" connectable="0" parent="M1QpUfeUCg4roTGGK431-64">
          <mxGeometry x="1100" y="140" width="737" height="1080" as="geometry" />
        </mxCell>
        <mxCell id="M1QpUfeUCg4roTGGK431-100" value="" style="rounded=1;whiteSpace=wrap;html=1;shadow=1;fillColor=default;strokeColor=none;arcSize=0;fontColor=default;" vertex="1" parent="M1QpUfeUCg4roTGGK431-99">
          <mxGeometry width="737" height="1080" as="geometry" />
        </mxCell>
        <mxCell id="M1QpUfeUCg4roTGGK431-101" value="" style="rounded=0;whiteSpace=wrap;html=1;fontFamily=Helvetica;fontSize=11;fontColor=default;labelBackgroundColor=default;fillColor=#2F4858;strokeColor=none;" vertex="1" parent="M1QpUfeUCg4roTGGK431-99">
          <mxGeometry width="737" height="140" as="geometry" />
        </mxCell>
        <mxCell id="M1QpUfeUCg4roTGGK431-102" value="&lt;font style=&quot;font-size: 36px;&quot; color=&quot;#ffffff&quot;&gt;Jane Smith&lt;/font&gt;" style="text;html=1;align=center;verticalAlign=middle;whiteSpace=wrap;rounded=0;fontFamily=Georgia;fontSize=36;fontColor=default;labelBackgroundColor=none;" vertex="1" parent="M1QpUfeUCg4roTGGK431-99">
          <mxGeometry x="278.6219512195122" y="40" width="197.7317073170732" height="30" as="geometry" />
        </mxCell>
        <mxCell id="M1QpUfeUCg4roTGGK431-112" value="" style="rounded=1;whiteSpace=wrap;html=1;shadow=1;fillColor=default;strokeColor=none;arcSize=2;" vertex="1" parent="M1QpUfeUCg4roTGGK431-64">
          <mxGeometry x="70" y="410" width="930" height="740" as="geometry" />
        </mxCell>
        <mxCell id="M1QpUfeUCg4roTGGK431-113" value="&lt;font data-font-src=&quot;https://fonts.googleapis.com/css?family=DM+Sans&quot; face=&quot;DM Sans&quot; style=&quot;font-size: 20px;&quot;&gt;Education&lt;/font&gt;" style="text;html=1;align=left;verticalAlign=middle;whiteSpace=wrap;rounded=0;fontSize=20;fontFamily=Libre Baskerville;fontSource=https%3A%2F%2Ffonts.googleapis.com%2Fcss%3Ffamily%3DLibre%2BBaskerville;fontColor=#25677b;fontStyle=1" vertex="1" parent="M1QpUfeUCg4roTGGK431-64">
          <mxGeometry x="110" y="448" width="220" height="30" as="geometry" />
        </mxCell>
        <mxCell id="M1QpUfeUCg4roTGGK431-114" value="" style="group;fontFamily=DM Sans;fontSource=https%3A%2F%2Ffonts.googleapis.com%2Fcss%3Ffamily%3DDM%2BSans;" vertex="1" connectable="0" parent="M1QpUfeUCg4roTGGK431-64">
          <mxGeometry x="110" y="720" width="390" height="70" as="geometry" />
        </mxCell>
        <mxCell id="M1QpUfeUCg4roTGGK431-115" value="&lt;font data-font-src=&quot;https://fonts.googleapis.com/css?family=DM+Sans&quot; face=&quot;DM Sans&quot; style=&quot;font-size: 16px;&quot;&gt;Degree&lt;/font&gt;" style="fillColor=none;strokeColor=none;html=1;fontSize=12;fontStyle=0;align=left;fontColor=#596780;fontStyle=1;fontSize=11;fontFamily=Helvetica;labelBackgroundColor=default;" vertex="1" parent="M1QpUfeUCg4roTGGK431-114">
          <mxGeometry width="390" height="20" as="geometry" />
        </mxCell>
        <mxCell id="M1QpUfeUCg4roTGGK431-116" value="&lt;font face=&quot;DM Sans&quot; data-font-src=&quot;https://fonts.googleapis.com/css?family=DM+Sans&quot;&gt;Bachelor of Commerce&lt;/font&gt;" style="rounded=1;arcSize=9;fillColor=#F7F8F9;align=left;spacingLeft=5;strokeColor=#DEE1E6;html=1;strokeWidth=2;fontSize=16;fontFamily=Helvetica;fontColor=#B3B3B3;labelBackgroundColor=none;" vertex="1" parent="M1QpUfeUCg4roTGGK431-114">
          <mxGeometry y="25" width="390" height="45" as="geometry" />
        </mxCell>
        <mxCell id="M1QpUfeUCg4roTGGK431-117" value="" style="group;fontFamily=DM Sans;fontSource=https%3A%2F%2Ffonts.googleapis.com%2Fcss%3Ffamily%3DDM%2BSans;" vertex="1" connectable="0" parent="M1QpUfeUCg4roTGGK431-64">
          <mxGeometry x="110" y="810" width="830" height="70" as="geometry" />
        </mxCell>
        <mxCell id="M1QpUfeUCg4roTGGK431-118" value="&lt;font face=&quot;DM Sans&quot;&gt;&lt;span style=&quot;font-size: 16px;&quot;&gt;School&lt;/span&gt;&lt;/font&gt;" style="fillColor=none;strokeColor=none;html=1;fontSize=12;fontStyle=0;align=left;fontColor=#596780;fontStyle=1;fontSize=11;fontFamily=Helvetica;labelBackgroundColor=default;" vertex="1" parent="M1QpUfeUCg4roTGGK431-117">
          <mxGeometry width="830" height="20" as="geometry" />
        </mxCell>
        <mxCell id="M1QpUfeUCg4roTGGK431-119" value="&lt;font face=&quot;DM Sans&quot; data-font-src=&quot;https://fonts.googleapis.com/css?family=DM+Sans&quot;&gt;University of New South Wales&lt;/font&gt;" style="rounded=1;arcSize=9;fillColor=#F7F8F9;align=left;spacingLeft=5;strokeColor=#DEE1E6;html=1;strokeWidth=2;fontSize=16;fontFamily=Helvetica;fontColor=#B3B3B3;labelBackgroundColor=none;" vertex="1" parent="M1QpUfeUCg4roTGGK431-117">
          <mxGeometry y="25" width="830" height="45" as="geometry" />
        </mxCell>
        <mxCell id="M1QpUfeUCg4roTGGK431-133" value="" style="group;fontFamily=DM Sans;fontSource=https%3A%2F%2Ffonts.googleapis.com%2Fcss%3Ffamily%3DDM%2BSans;" vertex="1" connectable="0" parent="M1QpUfeUCg4roTGGK431-64">
          <mxGeometry x="549" y="720" width="390" height="70" as="geometry" />
        </mxCell>
        <mxCell id="M1QpUfeUCg4roTGGK431-134" value="&lt;font data-font-src=&quot;https://fonts.googleapis.com/css?family=DM+Sans&quot; face=&quot;DM Sans&quot; style=&quot;font-size: 16px;&quot;&gt;Major&lt;/font&gt;" style="fillColor=none;strokeColor=none;html=1;fontSize=12;fontStyle=0;align=left;fontColor=#596780;fontStyle=1;fontSize=11;fontFamily=Helvetica;labelBackgroundColor=default;" vertex="1" parent="M1QpUfeUCg4roTGGK431-133">
          <mxGeometry width="390" height="20" as="geometry" />
        </mxCell>
        <mxCell id="M1QpUfeUCg4roTGGK431-135" value="&lt;font color=&quot;#b3b3b3&quot; data-font-src=&quot;https://fonts.googleapis.com/css?family=DM+Sans&quot; face=&quot;DM Sans&quot;&gt;Finance/Accounting&lt;/font&gt;" style="rounded=1;arcSize=9;fillColor=#F7F8F9;align=left;spacingLeft=5;strokeColor=#DEE1E6;html=1;strokeWidth=2;fontSize=16;fontFamily=Helvetica;fontColor=default;labelBackgroundColor=none;" vertex="1" parent="M1QpUfeUCg4roTGGK431-133">
          <mxGeometry y="25" width="390" height="45" as="geometry" />
        </mxCell>
        <mxCell id="M1QpUfeUCg4roTGGK431-229" value="" style="line;strokeWidth=1;rotatable=0;dashed=0;labelPosition=right;align=left;verticalAlign=middle;spacingTop=0;spacingLeft=6;points=[];portConstraint=eastwest;fontFamily=Helvetica;fontSize=11;fontColor=default;labelBackgroundColor=default;fillColor=none;strokeColor=#E8E8E8;container=0;" vertex="1" parent="M1QpUfeUCg4roTGGK431-64">
          <mxGeometry x="110" y="510" width="830" height="10" as="geometry" />
        </mxCell>
        <mxCell id="M1QpUfeUCg4roTGGK431-230" value="" style="html=1;dashed=0;aspect=fixed;verticalLabelPosition=bottom;verticalAlign=top;align=center;shape=mxgraph.gmdl.edit;strokeColor=none;fillColor=#000000;shadow=0;sketch=0;fontFamily=Helvetica;fontSize=11;fontColor=default;labelBackgroundColor=default;container=0;" vertex="1" parent="M1QpUfeUCg4roTGGK431-64">
          <mxGeometry x="840" y="546" width="22" height="22" as="geometry" />
        </mxCell>
        <mxCell id="M1QpUfeUCg4roTGGK431-231" value="" style="line;strokeWidth=1;rotatable=0;dashed=0;labelPosition=right;align=left;verticalAlign=middle;spacingTop=0;spacingLeft=6;points=[];portConstraint=eastwest;fontFamily=Helvetica;fontSize=11;fontColor=default;labelBackgroundColor=default;fillColor=none;strokeColor=#E8E8E8;container=0;" vertex="1" parent="M1QpUfeUCg4roTGGK431-64">
          <mxGeometry x="110" y="600" width="830" height="10" as="geometry" />
        </mxCell>
        <mxCell id="M1QpUfeUCg4roTGGK431-232" value="" style="line;strokeWidth=1;rotatable=0;dashed=0;labelPosition=right;align=left;verticalAlign=middle;spacingTop=0;spacingLeft=6;points=[];portConstraint=eastwest;fontFamily=Helvetica;fontSize=11;fontColor=default;labelBackgroundColor=default;fillColor=none;strokeColor=#E8E8E8;container=0;" vertex="1" parent="M1QpUfeUCg4roTGGK431-64">
          <mxGeometry x="110" y="690" width="830" height="10" as="geometry" />
        </mxCell>
        <mxCell id="M1QpUfeUCg4roTGGK431-233" value="&lt;div style=&quot;line-height: 180%;&quot;&gt;&lt;span style=&quot;font-family: &amp;quot;DM Sans&amp;quot;; font-size: 16px;&quot;&gt;&lt;b&gt;Bachelor of Commerce (Finance/Accounting)&lt;/b&gt;&lt;/span&gt;&lt;/div&gt;&lt;div style=&quot;line-height: 180%;&quot;&gt;&lt;span style=&quot;font-family: &amp;quot;DM Sans&amp;quot;; font-size: 12px;&quot;&gt;University of New South Wales&lt;/span&gt;&lt;br&gt;&lt;/div&gt;&lt;div style=&quot;font-size: 12px; line-height: 180%;&quot;&gt;&lt;font face=&quot;DM Sans&quot; color=&quot;#a1a1a1&quot;&gt;Mar 2014 - Nov 2017&lt;/font&gt;&lt;/div&gt;" style="text;html=1;align=left;verticalAlign=middle;whiteSpace=wrap;rounded=0;fontFamily=Helvetica;fontSize=11;fontColor=default;labelBackgroundColor=default;container=0;" vertex="1" parent="M1QpUfeUCg4roTGGK431-64">
          <mxGeometry x="110" y="613" width="373.5920177383592" height="80" as="geometry" />
        </mxCell>
        <mxCell id="M1QpUfeUCg4roTGGK431-234" value="" style="shape=image;html=1;verticalAlign=top;verticalLabelPosition=bottom;labelBackgroundColor=#ffffff;imageAspect=0;aspect=fixed;image=https://cdn0.iconfinder.com/data/icons/google-material-design-3-0/48/ic_delete_forever_48px-128.png;fontFamily=Helvetica;fontSize=11;fontColor=default;container=0;" vertex="1" parent="M1QpUfeUCg4roTGGK431-64">
          <mxGeometry x="890" y="632" width="30" height="30" as="geometry" />
        </mxCell>
        <mxCell id="M1QpUfeUCg4roTGGK431-235" value="" style="html=1;dashed=0;aspect=fixed;verticalLabelPosition=bottom;verticalAlign=top;align=center;shape=mxgraph.gmdl.edit;strokeColor=none;fillColor=#000000;shadow=0;sketch=0;fontFamily=Helvetica;fontSize=11;fontColor=default;labelBackgroundColor=default;container=0;" vertex="1" parent="M1QpUfeUCg4roTGGK431-64">
          <mxGeometry x="840" y="636" width="22" height="22" as="geometry" />
        </mxCell>
        <mxCell id="M1QpUfeUCg4roTGGK431-236" value="&lt;div style=&quot;line-height: 180%;&quot;&gt;&lt;span style=&quot;font-size: 16px;&quot;&gt;&lt;b&gt;&lt;font data-font-src=&quot;https://fonts.googleapis.com/css?family=DM+Sans&quot; face=&quot;DM Sans&quot;&gt;Masters of Data Science&lt;/font&gt;&lt;/b&gt;&lt;/span&gt;&lt;/div&gt;&lt;div style=&quot;line-height: 180%;&quot;&gt;&lt;span style=&quot;font-size: 12px;&quot;&gt;&lt;font face=&quot;DM Sans&quot;&gt;University of Adelaide&lt;/font&gt;&lt;/span&gt;&lt;br&gt;&lt;/div&gt;&lt;div style=&quot;font-size: 12px; line-height: 180%;&quot;&gt;&lt;font data-font-src=&quot;https://fonts.googleapis.com/css?family=DM+Sans&quot; face=&quot;DM Sans&quot; color=&quot;#a1a1a1&quot; style=&quot;font-size: 12px;&quot;&gt;Sep 2020 - Present&lt;/font&gt;&lt;/div&gt;" style="text;html=1;align=left;verticalAlign=middle;whiteSpace=wrap;rounded=0;fontFamily=Helvetica;fontSize=11;fontColor=default;labelBackgroundColor=default;container=0;" vertex="1" parent="M1QpUfeUCg4roTGGK431-64">
          <mxGeometry x="110" y="524" width="373.5920177383592" height="80" as="geometry" />
        </mxCell>
        <mxCell id="M1QpUfeUCg4roTGGK431-237" value="" style="shape=image;html=1;verticalAlign=top;verticalLabelPosition=bottom;labelBackgroundColor=#ffffff;imageAspect=0;aspect=fixed;image=https://cdn0.iconfinder.com/data/icons/google-material-design-3-0/48/ic_delete_forever_48px-128.png;fontFamily=Helvetica;fontSize=11;fontColor=default;container=0;" vertex="1" parent="M1QpUfeUCg4roTGGK431-64">
          <mxGeometry x="890" y="544" width="30" height="30" as="geometry" />
        </mxCell>
        <mxCell id="M1QpUfeUCg4roTGGK431-249" value="" style="group" vertex="1" connectable="0" parent="M1QpUfeUCg4roTGGK431-64">
          <mxGeometry x="110" y="900" width="381" height="70" as="geometry" />
        </mxCell>
        <mxCell id="M1QpUfeUCg4roTGGK431-238" value="" style="group;fontFamily=DM Sans;fontSource=https%3A%2F%2Ffonts.googleapis.com%2Fcss%3Ffamily%3DDM%2BSans;" vertex="1" connectable="0" parent="M1QpUfeUCg4roTGGK431-249">
          <mxGeometry width="180" height="70" as="geometry" />
        </mxCell>
        <mxCell id="M1QpUfeUCg4roTGGK431-239" value="&lt;font data-font-src=&quot;https://fonts.googleapis.com/css?family=DM+Sans&quot; face=&quot;DM Sans&quot; style=&quot;font-size: 16px;&quot;&gt;Start date&lt;/font&gt;" style="fillColor=none;strokeColor=none;html=1;fontSize=12;fontStyle=0;align=left;fontColor=#596780;fontStyle=1;fontSize=11;fontFamily=Helvetica;labelBackgroundColor=default;" vertex="1" parent="M1QpUfeUCg4roTGGK431-238">
          <mxGeometry width="180" height="20" as="geometry" />
        </mxCell>
        <mxCell id="M1QpUfeUCg4roTGGK431-240" value="&lt;font face=&quot;DM Sans&quot; data-font-src=&quot;https://fonts.googleapis.com/css?family=DM+Sans&quot;&gt;March&lt;/font&gt;" style="rounded=1;arcSize=9;fillColor=#F7F8F9;align=left;spacingLeft=5;strokeColor=#DEE1E6;html=1;strokeWidth=2;fontSize=16;fontFamily=Helvetica;fontColor=#B3B3B3;labelBackgroundColor=none;" vertex="1" parent="M1QpUfeUCg4roTGGK431-238">
          <mxGeometry y="25" width="180" height="45" as="geometry" />
        </mxCell>
        <mxCell id="M1QpUfeUCg4roTGGK431-247" value="" style="verticalLabelPosition=bottom;verticalAlign=top;html=1;shape=mxgraph.basic.acute_triangle;dx=0.5;rotation=-180;fillColor=#B3B3B3;aspect=fixed;strokeColor=none;" vertex="1" parent="M1QpUfeUCg4roTGGK431-238">
          <mxGeometry x="160" y="46.13000000000011" width="8" height="6.74" as="geometry" />
        </mxCell>
        <mxCell id="M1QpUfeUCg4roTGGK431-244" value="" style="group;fontFamily=DM Sans;fontSource=https%3A%2F%2Ffonts.googleapis.com%2Fcss%3Ffamily%3DDM%2BSans;" vertex="1" connectable="0" parent="M1QpUfeUCg4roTGGK431-249">
          <mxGeometry x="201" width="180" height="70" as="geometry" />
        </mxCell>
        <mxCell id="M1QpUfeUCg4roTGGK431-246" value="&lt;font face=&quot;DM Sans&quot; data-font-src=&quot;https://fonts.googleapis.com/css?family=DM+Sans&quot;&gt;2020&lt;/font&gt;" style="rounded=1;arcSize=9;fillColor=#F7F8F9;align=left;spacingLeft=5;strokeColor=#DEE1E6;html=1;strokeWidth=2;fontSize=16;fontFamily=Helvetica;fontColor=#B3B3B3;labelBackgroundColor=none;" vertex="1" parent="M1QpUfeUCg4roTGGK431-244">
          <mxGeometry y="25" width="180" height="45" as="geometry" />
        </mxCell>
        <mxCell id="M1QpUfeUCg4roTGGK431-248" value="" style="verticalLabelPosition=bottom;verticalAlign=top;html=1;shape=mxgraph.basic.acute_triangle;dx=0.5;rotation=-180;fillColor=#B3B3B3;aspect=fixed;strokeColor=none;" vertex="1" parent="M1QpUfeUCg4roTGGK431-244">
          <mxGeometry x="159" y="46.13000000000011" width="8" height="6.74" as="geometry" />
        </mxCell>
        <mxCell id="M1QpUfeUCg4roTGGK431-263" value="Save" style="html=1;shadow=0;dashed=0;shape=mxgraph.bootstrap.rrect;rSize=5;strokeColor=#00cbb7;strokeWidth=2;fillColor=none;fontColor=#00CBB7;whiteSpace=wrap;align=center;verticalAlign=middle;spacingLeft=0;fontStyle=1;fontSize=16;spacing=5;fontFamily=DM Sans;fontSource=https%3A%2F%2Ffonts.googleapis.com%2Fcss%3Ffamily%3DDM%2BSans;" vertex="1" parent="M1QpUfeUCg4roTGGK431-64">
          <mxGeometry x="720" y="1060" width="100" height="40" as="geometry" />
        </mxCell>
        <mxCell id="M1QpUfeUCg4roTGGK431-264" value="Cancel" style="html=1;shadow=0;dashed=0;shape=mxgraph.bootstrap.rrect;rSize=5;strokeColor=#8490B3;strokeWidth=2;fillColor=none;fontColor=#8490B3;whiteSpace=wrap;align=center;verticalAlign=middle;spacingLeft=0;fontStyle=1;fontSize=16;spacing=5;fontFamily=DM Sans;fontSource=https%3A%2F%2Ffonts.googleapis.com%2Fcss%3Ffamily%3DDM%2BSans;" vertex="1" parent="M1QpUfeUCg4roTGGK431-64">
          <mxGeometry x="840" y="1060" width="100" height="40" as="geometry" />
        </mxCell>
        <mxCell id="M1QpUfeUCg4roTGGK431-258" value="Validate end date is after start date" style="text;html=1;align=center;verticalAlign=middle;whiteSpace=wrap;rounded=0;fontFamily=Courier New;fillColor=#fff2cc;strokeColor=#d6b656;" vertex="1" parent="M1QpUfeUCg4roTGGK431-64">
          <mxGeometry x="845" y="990" width="120" height="56" as="geometry" />
        </mxCell>
        <mxCell id="M1QpUfeUCg4roTGGK431-265" value="If editing existing entry, values should be pre-populated" style="text;html=1;align=center;verticalAlign=middle;whiteSpace=wrap;rounded=0;fontFamily=Courier New;fillColor=#fff2cc;strokeColor=#d6b656;" vertex="1" parent="M1QpUfeUCg4roTGGK431-64">
          <mxGeometry x="-40" y="797" width="120" height="130" as="geometry" />
        </mxCell>
        <mxCell id="M1QpUfeUCg4roTGGK431-267" value="&lt;font face=&quot;Courier New&quot;&gt;deleting entry would trigger a modal to confirm as cannot be undone&lt;/font&gt;" style="rounded=1;whiteSpace=wrap;html=1;fillColor=#fff2cc;strokeColor=#d6b656;" vertex="1" parent="M1QpUfeUCg4roTGGK431-64">
          <mxGeometry x="939" y="560" width="150" height="90" as="geometry" />
        </mxCell>
        <mxCell id="M1QpUfeUCg4roTGGK431-107" value="" style="group" vertex="1" connectable="0" parent="M1QpUfeUCg4roTGGK431-64">
          <mxGeometry x="70" y="264" width="930" height="110" as="geometry" />
        </mxCell>
        <mxCell id="M1QpUfeUCg4roTGGK431-108" value="" style="rounded=1;whiteSpace=wrap;html=1;shadow=1;fillColor=default;strokeColor=none;arcSize=16;" vertex="1" parent="M1QpUfeUCg4roTGGK431-107">
          <mxGeometry width="930" height="110" as="geometry" />
        </mxCell>
        <mxCell id="M1QpUfeUCg4roTGGK431-109" value="&lt;font style=&quot;font-size: 20px;&quot;&gt;Personal Details&lt;/font&gt;" style="text;html=1;align=left;verticalAlign=middle;whiteSpace=wrap;rounded=0;fontSize=20;fontFamily=DM Sans;fontSource=https%3A%2F%2Ffonts.googleapis.com%2Fcss%3Ffamily%3DDM%2BSans;fontColor=#25677b;fontStyle=1" vertex="1" parent="M1QpUfeUCg4roTGGK431-107">
          <mxGeometry x="40" y="38" width="220" height="30" as="geometry" />
        </mxCell>
        <mxCell id="M1QpUfeUCg4roTGGK431-110" value="" style="shape=image;html=1;verticalAlign=top;verticalLabelPosition=bottom;labelBackgroundColor=none;imageAspect=0;aspect=fixed;image=https://cdn3.iconfinder.com/data/icons/user-interface-169/32/chevron-bottom-128.png;fontFamily=Helvetica;fontSize=11;fontColor=none;noLabel=1;rotation=0;" vertex="1" parent="M1QpUfeUCg4roTGGK431-107">
          <mxGeometry x="851" y="43" width="25" height="25" as="geometry" />
        </mxCell>
        <mxCell id="M1QpUfeUCg4roTGGK431-273" value="" style="shape=image;html=1;verticalAlign=top;verticalLabelPosition=bottom;labelBackgroundColor=none;imageAspect=0;aspect=fixed;image=https://cdn3.iconfinder.com/data/icons/user-interface-169/32/chevron-bottom-128.png;fontFamily=Helvetica;fontSize=11;fontColor=none;noLabel=1;rotation=-180;" vertex="1" parent="M1QpUfeUCg4roTGGK431-64">
          <mxGeometry x="921" y="453" width="25" height="25" as="geometry" />
        </mxCell>
        <mxCell id="M1QpUfeUCg4roTGGK431-259" value="Top option for month dropdown is &quot;Present&quot;, and the other dropdown is disabled" style="text;html=1;align=center;verticalAlign=middle;whiteSpace=wrap;rounded=0;fontFamily=Courier New;fillColor=#fff2cc;strokeColor=#d6b656;" vertex="1" parent="M1QpUfeUCg4roTGGK431-64">
          <mxGeometry x="580" y="970" width="120" height="110" as="geometry" />
        </mxCell>
        <mxCell id="M1QpUfeUCg4roTGGK431-136" value="" style="group" vertex="1" connectable="0" parent="1">
          <mxGeometry x="3320" y="40" width="1920" height="1310" as="geometry" />
        </mxCell>
        <mxCell id="M1QpUfeUCg4roTGGK431-137" value="" style="strokeWidth=1;shadow=0;dashed=0;align=center;html=1;shape=mxgraph.mockup.containers.browserWindow;rSize=0;strokeColor=#666666;strokeColor2=#008cff;strokeColor3=#c4c4c4;mainText=,;recursiveResize=0;" vertex="1" parent="M1QpUfeUCg4roTGGK431-136">
          <mxGeometry width="1920" height="1310" as="geometry" />
        </mxCell>
        <mxCell id="M1QpUfeUCg4roTGGK431-138" value="" style="rounded=0;whiteSpace=wrap;html=1;strokeColor=none;fillColor=#f1f6fd;" vertex="1" parent="M1QpUfeUCg4roTGGK431-136">
          <mxGeometry y="110" width="1920" height="1200" as="geometry" />
        </mxCell>
        <mxCell id="M1QpUfeUCg4roTGGK431-139" value="" style="group;fontStyle=0" vertex="1" connectable="0" parent="M1QpUfeUCg4roTGGK431-136">
          <mxGeometry x="70" y="140" width="930" height="80" as="geometry" />
        </mxCell>
        <mxCell id="M1QpUfeUCg4roTGGK431-140" value="" style="rounded=1;whiteSpace=wrap;html=1;shadow=1;fillColor=default;strokeColor=none;" vertex="1" parent="M1QpUfeUCg4roTGGK431-139">
          <mxGeometry width="930" height="80" as="geometry" />
        </mxCell>
        <mxCell id="M1QpUfeUCg4roTGGK431-141" value="&lt;span&gt;Clear all&lt;/span&gt;" style="html=1;shadow=0;dashed=0;shape=mxgraph.bootstrap.rrect;rSize=5;strokeColor=#8490B3;strokeWidth=2;fillColor=none;fontColor=#8490B3;whiteSpace=wrap;align=center;verticalAlign=middle;spacingLeft=0;fontStyle=1;fontSize=16;spacing=5;fontFamily=DM Sans;fontSource=https%3A%2F%2Ffonts.googleapis.com%2Fcss%3Ffamily%3DDM%2BSans;" vertex="1" parent="M1QpUfeUCg4roTGGK431-139">
          <mxGeometry x="780" y="20" width="100" height="40" as="geometry" />
        </mxCell>
        <mxCell id="M1QpUfeUCg4roTGGK431-142" value="Download" style="html=1;shadow=0;dashed=0;shape=mxgraph.bootstrap.rrect;rSize=5;strokeColor=#00cbb7;strokeWidth=2;fillColor=#00cbb7;fontColor=#FFFFFF;whiteSpace=wrap;align=center;verticalAlign=middle;spacingLeft=0;fontStyle=1;fontSize=16;spacing=5;fontFamily=DM Sans;fontSource=https%3A%2F%2Ffonts.googleapis.com%2Fcss%3Ffamily%3DDM%2BSans;" vertex="1" parent="M1QpUfeUCg4roTGGK431-139">
          <mxGeometry x="650" y="20" width="110" height="40" as="geometry" />
        </mxCell>
        <mxCell id="M1QpUfeUCg4roTGGK431-143" value="CV Gen" style="text;html=1;align=left;verticalAlign=middle;whiteSpace=wrap;rounded=0;fontSize=36;fontFamily=Arizonia;fontSource=https%3A%2F%2Ffonts.googleapis.com%2Fcss%3Ffamily%3DArizonia;fontColor=#00a9ad;" vertex="1" parent="M1QpUfeUCg4roTGGK431-139">
          <mxGeometry x="40" y="25" width="250" height="30" as="geometry" />
        </mxCell>
        <mxCell id="M1QpUfeUCg4roTGGK431-144" value="" style="group" vertex="1" connectable="0" parent="M1QpUfeUCg4roTGGK431-136">
          <mxGeometry x="70" y="892" width="930" height="110" as="geometry" />
        </mxCell>
        <mxCell id="M1QpUfeUCg4roTGGK431-145" value="" style="rounded=1;whiteSpace=wrap;html=1;shadow=1;fillColor=default;strokeColor=none;arcSize=16;" vertex="1" parent="M1QpUfeUCg4roTGGK431-144">
          <mxGeometry width="930" height="110" as="geometry" />
        </mxCell>
        <mxCell id="M1QpUfeUCg4roTGGK431-146" value="&lt;font style=&quot;font-size: 20px;&quot;&gt;Experience&lt;/font&gt;" style="text;html=1;align=left;verticalAlign=middle;whiteSpace=wrap;rounded=0;fontSize=20;fontFamily=DM Sans;fontSource=https%3A%2F%2Ffonts.googleapis.com%2Fcss%3Ffamily%3DDM%2BSans;fontColor=#25677b;fontStyle=1" vertex="1" parent="M1QpUfeUCg4roTGGK431-144">
          <mxGeometry x="40" y="38" width="220" height="30" as="geometry" />
        </mxCell>
        <mxCell id="M1QpUfeUCg4roTGGK431-147" value="" style="shape=image;html=1;verticalAlign=top;verticalLabelPosition=bottom;labelBackgroundColor=none;imageAspect=0;aspect=fixed;image=https://cdn3.iconfinder.com/data/icons/user-interface-169/32/chevron-bottom-128.png;fontFamily=Helvetica;fontSize=11;fontColor=none;noLabel=1;rotation=0;" vertex="1" parent="M1QpUfeUCg4roTGGK431-144">
          <mxGeometry x="855" y="43" width="25" height="25" as="geometry" />
        </mxCell>
        <mxCell id="M1QpUfeUCg4roTGGK431-148" value="" style="group" vertex="1" connectable="0" parent="M1QpUfeUCg4roTGGK431-136">
          <mxGeometry x="1100" y="140" width="737" height="1080" as="geometry" />
        </mxCell>
        <mxCell id="M1QpUfeUCg4roTGGK431-149" value="" style="rounded=1;whiteSpace=wrap;html=1;shadow=1;fillColor=default;strokeColor=none;arcSize=0;fontColor=default;" vertex="1" parent="M1QpUfeUCg4roTGGK431-148">
          <mxGeometry width="737" height="1080" as="geometry" />
        </mxCell>
        <mxCell id="M1QpUfeUCg4roTGGK431-150" value="" style="rounded=0;whiteSpace=wrap;html=1;fontFamily=Helvetica;fontSize=11;fontColor=default;labelBackgroundColor=default;fillColor=#2F4858;strokeColor=none;" vertex="1" parent="M1QpUfeUCg4roTGGK431-148">
          <mxGeometry width="737" height="140" as="geometry" />
        </mxCell>
        <mxCell id="M1QpUfeUCg4roTGGK431-151" value="&lt;font style=&quot;font-size: 36px;&quot; color=&quot;#ffffff&quot;&gt;Jane Smith&lt;/font&gt;" style="text;html=1;align=center;verticalAlign=middle;whiteSpace=wrap;rounded=0;fontFamily=Georgia;fontSize=36;fontColor=default;labelBackgroundColor=none;" vertex="1" parent="M1QpUfeUCg4roTGGK431-148">
          <mxGeometry x="278.6219512195122" y="40" width="197.7317073170732" height="30" as="geometry" />
        </mxCell>
        <mxCell id="M1QpUfeUCg4roTGGK431-152" value="" style="group" vertex="1" connectable="0" parent="M1QpUfeUCg4roTGGK431-136">
          <mxGeometry x="70" y="264" width="930" height="110" as="geometry" />
        </mxCell>
        <mxCell id="M1QpUfeUCg4roTGGK431-153" value="" style="rounded=1;whiteSpace=wrap;html=1;shadow=1;fillColor=default;strokeColor=none;arcSize=16;" vertex="1" parent="M1QpUfeUCg4roTGGK431-152">
          <mxGeometry width="930" height="110" as="geometry" />
        </mxCell>
        <mxCell id="M1QpUfeUCg4roTGGK431-154" value="&lt;font style=&quot;font-size: 20px;&quot;&gt;Personal Details&lt;/font&gt;" style="text;html=1;align=left;verticalAlign=middle;whiteSpace=wrap;rounded=0;fontSize=20;fontFamily=DM Sans;fontSource=https%3A%2F%2Ffonts.googleapis.com%2Fcss%3Ffamily%3DDM%2BSans;fontColor=#25677b;fontStyle=1" vertex="1" parent="M1QpUfeUCg4roTGGK431-152">
          <mxGeometry x="40" y="38" width="220" height="30" as="geometry" />
        </mxCell>
        <mxCell id="M1QpUfeUCg4roTGGK431-155" value="" style="shape=image;html=1;verticalAlign=top;verticalLabelPosition=bottom;labelBackgroundColor=none;imageAspect=0;aspect=fixed;image=https://cdn3.iconfinder.com/data/icons/user-interface-169/32/chevron-bottom-128.png;fontFamily=Helvetica;fontSize=11;fontColor=none;noLabel=1;rotation=0;" vertex="1" parent="M1QpUfeUCg4roTGGK431-152">
          <mxGeometry x="855" y="43" width="25" height="25" as="geometry" />
        </mxCell>
        <mxCell id="M1QpUfeUCg4roTGGK431-156" value="" style="rounded=1;whiteSpace=wrap;html=1;shadow=1;fillColor=default;strokeColor=none;arcSize=5;" vertex="1" parent="M1QpUfeUCg4roTGGK431-136">
          <mxGeometry x="70" y="410" width="930" height="430" as="geometry" />
        </mxCell>
        <mxCell id="M1QpUfeUCg4roTGGK431-157" value="&lt;font data-font-src=&quot;https://fonts.googleapis.com/css?family=DM+Sans&quot; face=&quot;DM Sans&quot; style=&quot;font-size: 20px;&quot;&gt;Education&lt;/font&gt;" style="text;html=1;align=left;verticalAlign=middle;whiteSpace=wrap;rounded=0;fontSize=20;fontFamily=Libre Baskerville;fontSource=https%3A%2F%2Ffonts.googleapis.com%2Fcss%3Ffamily%3DLibre%2BBaskerville;fontColor=#25677b;fontStyle=1" vertex="1" parent="M1QpUfeUCg4roTGGK431-136">
          <mxGeometry x="110" y="448" width="220" height="30" as="geometry" />
        </mxCell>
        <mxCell id="M1QpUfeUCg4roTGGK431-189" value="" style="group" vertex="1" connectable="0" parent="M1QpUfeUCg4roTGGK431-136">
          <mxGeometry x="110" y="741" width="830" height="57" as="geometry" />
        </mxCell>
        <mxCell id="M1QpUfeUCg4roTGGK431-185" value="&lt;blockquote style=&quot;margin: 0 0 0 40px; border: none; padding: 0px;&quot;&gt;Add another education&lt;/blockquote&gt;" style="html=1;shadow=0;dashed=0;shape=mxgraph.bootstrap.rrect;rSize=5;strokeColor=#00cbb7;strokeWidth=2;fillColor=none;fontColor=#00CBB7;whiteSpace=wrap;align=center;verticalAlign=middle;spacingLeft=0;fontStyle=1;fontSize=16;spacing=5;fontFamily=DM Sans;fontSource=https%3A%2F%2Ffonts.googleapis.com%2Fcss%3Ffamily%3DDM%2BSans;" vertex="1" parent="M1QpUfeUCg4roTGGK431-189">
          <mxGeometry width="830" height="57" as="geometry" />
        </mxCell>
        <mxCell id="M1QpUfeUCg4roTGGK431-186" value="" style="html=1;verticalLabelPosition=bottom;align=center;labelBackgroundColor=#ffffff;verticalAlign=top;strokeWidth=2;strokeColor=#00CBB7;shadow=0;dashed=0;shape=mxgraph.ios7.icons.add;fillColor=none;aspect=fixed;" vertex="1" parent="M1QpUfeUCg4roTGGK431-189">
          <mxGeometry x="300.00458333333336" y="18.5" width="20" height="20" as="geometry" />
        </mxCell>
        <mxCell id="M1QpUfeUCg4roTGGK431-190" value="In future, enable reordering. Right now, sort by reverse chronological order (newest at top)" style="text;html=1;align=center;verticalAlign=middle;whiteSpace=wrap;rounded=0;fontFamily=Courier New;fillColor=#f0a30a;strokeColor=#BD7000;fontColor=#000000;" vertex="1" parent="M1QpUfeUCg4roTGGK431-136">
          <mxGeometry x="940" y="514" width="120" height="130" as="geometry" />
        </mxCell>
        <mxCell id="M1QpUfeUCg4roTGGK431-167" value="" style="line;strokeWidth=1;rotatable=0;dashed=0;labelPosition=right;align=left;verticalAlign=middle;spacingTop=0;spacingLeft=6;points=[];portConstraint=eastwest;fontFamily=Helvetica;fontSize=11;fontColor=default;labelBackgroundColor=default;fillColor=none;strokeColor=#E8E8E8;container=0;" vertex="1" parent="M1QpUfeUCg4roTGGK431-136">
          <mxGeometry x="110" y="504" width="830" height="10" as="geometry" />
        </mxCell>
        <mxCell id="M1QpUfeUCg4roTGGK431-175" value="" style="html=1;dashed=0;aspect=fixed;verticalLabelPosition=bottom;verticalAlign=top;align=center;shape=mxgraph.gmdl.edit;strokeColor=none;fillColor=#000000;shadow=0;sketch=0;fontFamily=Helvetica;fontSize=11;fontColor=default;labelBackgroundColor=default;container=0;" vertex="1" parent="M1QpUfeUCg4roTGGK431-136">
          <mxGeometry x="840" y="540" width="22" height="22" as="geometry" />
        </mxCell>
        <mxCell id="M1QpUfeUCg4roTGGK431-179" value="" style="line;strokeWidth=1;rotatable=0;dashed=0;labelPosition=right;align=left;verticalAlign=middle;spacingTop=0;spacingLeft=6;points=[];portConstraint=eastwest;fontFamily=Helvetica;fontSize=11;fontColor=default;labelBackgroundColor=default;fillColor=none;strokeColor=#E8E8E8;container=0;" vertex="1" parent="M1QpUfeUCg4roTGGK431-136">
          <mxGeometry x="110" y="594" width="830" height="10" as="geometry" />
        </mxCell>
        <mxCell id="M1QpUfeUCg4roTGGK431-184" value="" style="line;strokeWidth=1;rotatable=0;dashed=0;labelPosition=right;align=left;verticalAlign=middle;spacingTop=0;spacingLeft=6;points=[];portConstraint=eastwest;fontFamily=Helvetica;fontSize=11;fontColor=default;labelBackgroundColor=default;fillColor=none;strokeColor=#E8E8E8;container=0;" vertex="1" parent="M1QpUfeUCg4roTGGK431-136">
          <mxGeometry x="110" y="684" width="830" height="10" as="geometry" />
        </mxCell>
        <mxCell id="M1QpUfeUCg4roTGGK431-181" value="&lt;div style=&quot;line-height: 180%;&quot;&gt;&lt;span style=&quot;font-family: &amp;quot;DM Sans&amp;quot;; font-size: 16px;&quot;&gt;&lt;b&gt;Bachelor of Commerce (Finance/Accounting)&lt;/b&gt;&lt;/span&gt;&lt;/div&gt;&lt;div style=&quot;line-height: 180%;&quot;&gt;&lt;span style=&quot;font-family: &amp;quot;DM Sans&amp;quot;; font-size: 12px;&quot;&gt;University of New South Wales&lt;/span&gt;&lt;br&gt;&lt;/div&gt;&lt;div style=&quot;font-size: 12px; line-height: 180%;&quot;&gt;&lt;font face=&quot;DM Sans&quot; color=&quot;#a1a1a1&quot;&gt;Mar 2014 - Nov 2017&lt;/font&gt;&lt;/div&gt;" style="text;html=1;align=left;verticalAlign=middle;whiteSpace=wrap;rounded=0;fontFamily=Helvetica;fontSize=11;fontColor=default;labelBackgroundColor=default;container=0;" vertex="1" parent="M1QpUfeUCg4roTGGK431-136">
          <mxGeometry x="110" y="607" width="373.5920177383592" height="80" as="geometry" />
        </mxCell>
        <mxCell id="M1QpUfeUCg4roTGGK431-182" value="" style="shape=image;html=1;verticalAlign=top;verticalLabelPosition=bottom;labelBackgroundColor=#ffffff;imageAspect=0;aspect=fixed;image=https://cdn0.iconfinder.com/data/icons/google-material-design-3-0/48/ic_delete_forever_48px-128.png;fontFamily=Helvetica;fontSize=11;fontColor=default;container=0;" vertex="1" parent="M1QpUfeUCg4roTGGK431-136">
          <mxGeometry x="890" y="626" width="30" height="30" as="geometry" />
        </mxCell>
        <mxCell id="M1QpUfeUCg4roTGGK431-183" value="" style="html=1;dashed=0;aspect=fixed;verticalLabelPosition=bottom;verticalAlign=top;align=center;shape=mxgraph.gmdl.edit;strokeColor=none;fillColor=#000000;shadow=0;sketch=0;fontFamily=Helvetica;fontSize=11;fontColor=default;labelBackgroundColor=default;container=0;" vertex="1" parent="M1QpUfeUCg4roTGGK431-136">
          <mxGeometry x="840" y="630" width="22" height="22" as="geometry" />
        </mxCell>
        <mxCell id="M1QpUfeUCg4roTGGK431-270" value="" style="shape=image;html=1;verticalAlign=top;verticalLabelPosition=bottom;labelBackgroundColor=none;imageAspect=0;aspect=fixed;image=https://cdn3.iconfinder.com/data/icons/user-interface-169/32/chevron-bottom-128.png;fontFamily=Helvetica;fontSize=11;fontColor=none;noLabel=1;rotation=-180;" vertex="1" parent="M1QpUfeUCg4roTGGK431-136">
          <mxGeometry x="920" y="453" width="25" height="25" as="geometry" />
        </mxCell>
        <mxCell id="M1QpUfeUCg4roTGGK431-173" value="&lt;div style=&quot;line-height: 180%;&quot;&gt;&lt;span style=&quot;font-size: 16px;&quot;&gt;&lt;b&gt;&lt;font data-font-src=&quot;https://fonts.googleapis.com/css?family=DM+Sans&quot; face=&quot;DM Sans&quot;&gt;Masters of Data Science&lt;/font&gt;&lt;/b&gt;&lt;/span&gt;&lt;/div&gt;&lt;div style=&quot;line-height: 180%;&quot;&gt;&lt;span style=&quot;font-size: 12px;&quot;&gt;&lt;font face=&quot;DM Sans&quot;&gt;University of Adelaide&lt;/font&gt;&lt;/span&gt;&lt;br&gt;&lt;/div&gt;&lt;div style=&quot;font-size: 12px; line-height: 180%;&quot;&gt;&lt;font data-font-src=&quot;https://fonts.googleapis.com/css?family=DM+Sans&quot; face=&quot;DM Sans&quot; color=&quot;#a1a1a1&quot; style=&quot;font-size: 12px;&quot;&gt;Sep 2020 - Present&lt;/font&gt;&lt;/div&gt;" style="text;html=1;align=left;verticalAlign=middle;whiteSpace=wrap;rounded=0;fontFamily=Helvetica;fontSize=11;fontColor=default;labelBackgroundColor=default;container=0;" vertex="1" parent="1">
          <mxGeometry x="3430" y="558" width="373.5920177383592" height="80" as="geometry" />
        </mxCell>
        <mxCell id="M1QpUfeUCg4roTGGK431-174" value="" style="shape=image;html=1;verticalAlign=top;verticalLabelPosition=bottom;labelBackgroundColor=#ffffff;imageAspect=0;aspect=fixed;image=https://cdn0.iconfinder.com/data/icons/google-material-design-3-0/48/ic_delete_forever_48px-128.png;fontFamily=Helvetica;fontSize=11;fontColor=default;container=0;" vertex="1" parent="1">
          <mxGeometry x="4210" y="578" width="30" height="30" as="geometry" />
        </mxCell>
        <mxCell id="M1QpUfeUCg4roTGGK431-269" style="edgeStyle=orthogonalEdgeStyle;shape=connector;curved=1;rounded=0;orthogonalLoop=1;jettySize=auto;html=1;entryX=0;entryY=0.5;entryDx=0;entryDy=0;strokeColor=#314354;align=center;verticalAlign=middle;fontFamily=Helvetica;fontSize=11;fontColor=default;labelBackgroundColor=default;endArrow=classic;flowAnimation=1;fillColor=#647687;" edge="1" parent="1" source="M1QpUfeUCg4roTGGK431-185" target="M1QpUfeUCg4roTGGK431-66">
          <mxGeometry relative="1" as="geometry" />
        </mxCell>
        <mxCell id="M1QpUfeUCg4roTGGK431-275" style="edgeStyle=orthogonalEdgeStyle;shape=connector;curved=1;rounded=0;orthogonalLoop=1;jettySize=auto;html=1;strokeColor=#314354;align=center;verticalAlign=middle;fontFamily=Helvetica;fontSize=11;fontColor=default;labelBackgroundColor=default;endArrow=classic;flowAnimation=1;fillColor=#647687;" edge="1" parent="1" source="M1QpUfeUCg4roTGGK431-53" target="M1QpUfeUCg4roTGGK431-138">
          <mxGeometry relative="1" as="geometry" />
        </mxCell>
        <mxCell id="M1QpUfeUCg4roTGGK431-276" value="" style="group" vertex="1" connectable="0" parent="1">
          <mxGeometry x="5971" y="928" width="381" height="70" as="geometry" />
        </mxCell>
        <mxCell id="M1QpUfeUCg4roTGGK431-277" value="" style="group;fontFamily=DM Sans;fontSource=https%3A%2F%2Ffonts.googleapis.com%2Fcss%3Ffamily%3DDM%2BSans;" vertex="1" connectable="0" parent="M1QpUfeUCg4roTGGK431-276">
          <mxGeometry width="180" height="70" as="geometry" />
        </mxCell>
        <mxCell id="M1QpUfeUCg4roTGGK431-278" value="&lt;font data-font-src=&quot;https://fonts.googleapis.com/css?family=DM+Sans&quot; face=&quot;DM Sans&quot; style=&quot;font-size: 16px;&quot;&gt;End date&lt;/font&gt;" style="fillColor=none;strokeColor=none;html=1;fontSize=12;fontStyle=0;align=left;fontColor=#596780;fontStyle=1;fontSize=11;fontFamily=Helvetica;labelBackgroundColor=default;" vertex="1" parent="M1QpUfeUCg4roTGGK431-277">
          <mxGeometry width="180" height="20" as="geometry" />
        </mxCell>
        <mxCell id="M1QpUfeUCg4roTGGK431-279" value="&lt;font face=&quot;DM Sans&quot; data-font-src=&quot;https://fonts.googleapis.com/css?family=DM+Sans&quot;&gt;Present&lt;/font&gt;" style="rounded=1;arcSize=9;fillColor=#F7F8F9;align=left;spacingLeft=5;strokeColor=#DEE1E6;html=1;strokeWidth=2;fontSize=16;fontFamily=Helvetica;fontColor=#B3B3B3;labelBackgroundColor=none;" vertex="1" parent="M1QpUfeUCg4roTGGK431-277">
          <mxGeometry y="25" width="180" height="45" as="geometry" />
        </mxCell>
        <mxCell id="M1QpUfeUCg4roTGGK431-280" value="" style="verticalLabelPosition=bottom;verticalAlign=top;html=1;shape=mxgraph.basic.acute_triangle;dx=0.5;rotation=-180;fillColor=#B3B3B3;aspect=fixed;strokeColor=none;" vertex="1" parent="M1QpUfeUCg4roTGGK431-277">
          <mxGeometry x="160" y="46.13000000000011" width="8" height="6.74" as="geometry" />
        </mxCell>
        <mxCell id="M1QpUfeUCg4roTGGK431-281" value="" style="group;fontFamily=DM Sans;fontSource=https%3A%2F%2Ffonts.googleapis.com%2Fcss%3Ffamily%3DDM%2BSans;" vertex="1" connectable="0" parent="M1QpUfeUCg4roTGGK431-276">
          <mxGeometry x="201" width="180" height="70" as="geometry" />
        </mxCell>
        <mxCell id="M1QpUfeUCg4roTGGK431-282" value="" style="rounded=1;arcSize=9;fillColor=#F7F8F9;align=left;spacingLeft=5;strokeColor=#DEE1E6;html=1;strokeWidth=2;fontSize=16;fontFamily=Helvetica;fontColor=#B3B3B3;labelBackgroundColor=none;" vertex="1" parent="M1QpUfeUCg4roTGGK431-281">
          <mxGeometry y="25" width="180" height="45" as="geometry" />
        </mxCell>
        <mxCell id="M1QpUfeUCg4roTGGK431-283" value="" style="verticalLabelPosition=bottom;verticalAlign=top;html=1;shape=mxgraph.basic.acute_triangle;dx=0.5;rotation=-180;fillColor=#B3B3B3;aspect=fixed;strokeColor=none;" vertex="1" parent="M1QpUfeUCg4roTGGK431-281">
          <mxGeometry x="159" y="46.13000000000011" width="8" height="6.74" as="geometry" />
        </mxCell>
        <mxCell id="M1QpUfeUCg4roTGGK431-284" value="" style="group" vertex="1" connectable="0" parent="1">
          <mxGeometry x="5430" y="1600" width="1920" height="1600" as="geometry" />
        </mxCell>
        <mxCell id="M1QpUfeUCg4roTGGK431-285" value="" style="strokeWidth=1;shadow=0;dashed=0;align=center;html=1;shape=mxgraph.mockup.containers.browserWindow;rSize=0;strokeColor=#666666;strokeColor2=#008cff;strokeColor3=#c4c4c4;mainText=,;recursiveResize=0;" vertex="1" parent="M1QpUfeUCg4roTGGK431-284">
          <mxGeometry width="1920" height="1570" as="geometry" />
        </mxCell>
        <mxCell id="M1QpUfeUCg4roTGGK431-286" value="" style="rounded=0;whiteSpace=wrap;html=1;strokeColor=none;fillColor=#f1f6fd;" vertex="1" parent="M1QpUfeUCg4roTGGK431-284">
          <mxGeometry y="112.99" width="1920" height="1457.01" as="geometry" />
        </mxCell>
        <mxCell id="M1QpUfeUCg4roTGGK431-287" value="" style="group;fontStyle=0" vertex="1" connectable="0" parent="M1QpUfeUCg4roTGGK431-284">
          <mxGeometry x="70" y="143.80952380952382" width="930" height="82.17687074829932" as="geometry" />
        </mxCell>
        <mxCell id="M1QpUfeUCg4roTGGK431-288" value="" style="rounded=1;whiteSpace=wrap;html=1;shadow=1;fillColor=default;strokeColor=none;" vertex="1" parent="M1QpUfeUCg4roTGGK431-287">
          <mxGeometry width="930" height="82.17687074829932" as="geometry" />
        </mxCell>
        <mxCell id="M1QpUfeUCg4roTGGK431-289" value="&lt;span&gt;Clear all&lt;/span&gt;" style="html=1;shadow=0;dashed=0;shape=mxgraph.bootstrap.rrect;rSize=5;strokeColor=#8490B3;strokeWidth=2;fillColor=none;fontColor=#8490B3;whiteSpace=wrap;align=center;verticalAlign=middle;spacingLeft=0;fontStyle=1;fontSize=16;spacing=5;fontFamily=DM Sans;fontSource=https%3A%2F%2Ffonts.googleapis.com%2Fcss%3Ffamily%3DDM%2BSans;" vertex="1" parent="M1QpUfeUCg4roTGGK431-287">
          <mxGeometry x="780" y="20.54421768707483" width="100" height="41.08843537414966" as="geometry" />
        </mxCell>
        <mxCell id="M1QpUfeUCg4roTGGK431-290" value="Download" style="html=1;shadow=0;dashed=0;shape=mxgraph.bootstrap.rrect;rSize=5;strokeColor=#00cbb7;strokeWidth=2;fillColor=#00cbb7;fontColor=#FFFFFF;whiteSpace=wrap;align=center;verticalAlign=middle;spacingLeft=0;fontStyle=1;fontSize=16;spacing=5;fontFamily=DM Sans;fontSource=https%3A%2F%2Ffonts.googleapis.com%2Fcss%3Ffamily%3DDM%2BSans;" vertex="1" parent="M1QpUfeUCg4roTGGK431-287">
          <mxGeometry x="650" y="20.54421768707483" width="110" height="41.08843537414966" as="geometry" />
        </mxCell>
        <mxCell id="M1QpUfeUCg4roTGGK431-291" value="CV Gen" style="text;html=1;align=left;verticalAlign=middle;whiteSpace=wrap;rounded=0;fontSize=36;fontFamily=Arizonia;fontSource=https%3A%2F%2Ffonts.googleapis.com%2Fcss%3Ffamily%3DArizonia;fontColor=#00a9ad;" vertex="1" parent="M1QpUfeUCg4roTGGK431-287">
          <mxGeometry x="40" y="25.68027210884354" width="250" height="30.816326530612244" as="geometry" />
        </mxCell>
        <mxCell id="M1QpUfeUCg4roTGGK431-292" value="" style="group" vertex="1" connectable="0" parent="M1QpUfeUCg4roTGGK431-284">
          <mxGeometry x="70" y="410.8843537414966" width="930" height="112.99319727891157" as="geometry" />
        </mxCell>
        <mxCell id="M1QpUfeUCg4roTGGK431-293" value="" style="rounded=1;whiteSpace=wrap;html=1;shadow=1;fillColor=default;strokeColor=none;arcSize=16;" vertex="1" parent="M1QpUfeUCg4roTGGK431-292">
          <mxGeometry width="930" height="112.99319727891157" as="geometry" />
        </mxCell>
        <mxCell id="M1QpUfeUCg4roTGGK431-294" value="&lt;font style=&quot;font-size: 20px;&quot;&gt;Education&lt;/font&gt;" style="text;html=1;align=left;verticalAlign=middle;whiteSpace=wrap;rounded=0;fontSize=20;fontFamily=DM Sans;fontSource=https%3A%2F%2Ffonts.googleapis.com%2Fcss%3Ffamily%3DDM%2BSans;fontColor=#25677b;fontStyle=1" vertex="1" parent="M1QpUfeUCg4roTGGK431-292">
          <mxGeometry x="40" y="39.034013605442176" width="220" height="30.816326530612244" as="geometry" />
        </mxCell>
        <mxCell id="M1QpUfeUCg4roTGGK431-295" value="" style="shape=image;html=1;verticalAlign=top;verticalLabelPosition=bottom;labelBackgroundColor=none;imageAspect=0;aspect=fixed;image=https://cdn3.iconfinder.com/data/icons/user-interface-169/32/chevron-bottom-128.png;fontFamily=Helvetica;fontSize=11;fontColor=none;noLabel=1;rotation=0;" vertex="1" parent="M1QpUfeUCg4roTGGK431-292">
          <mxGeometry x="855" y="44.17006802721089" width="25" height="25" as="geometry" />
        </mxCell>
        <mxCell id="M1QpUfeUCg4roTGGK431-296" value="" style="group" vertex="1" connectable="0" parent="M1QpUfeUCg4roTGGK431-284">
          <mxGeometry x="1100" y="143.80952380952382" width="737" height="1109.387755102041" as="geometry" />
        </mxCell>
        <mxCell id="M1QpUfeUCg4roTGGK431-297" value="" style="rounded=1;whiteSpace=wrap;html=1;shadow=1;fillColor=default;strokeColor=none;arcSize=0;fontColor=default;" vertex="1" parent="M1QpUfeUCg4roTGGK431-296">
          <mxGeometry width="737" height="1109.387755102041" as="geometry" />
        </mxCell>
        <mxCell id="M1QpUfeUCg4roTGGK431-298" value="" style="rounded=0;whiteSpace=wrap;html=1;fontFamily=Helvetica;fontSize=11;fontColor=default;labelBackgroundColor=default;fillColor=#2F4858;strokeColor=none;" vertex="1" parent="M1QpUfeUCg4roTGGK431-296">
          <mxGeometry width="737" height="143.80952380952382" as="geometry" />
        </mxCell>
        <mxCell id="M1QpUfeUCg4roTGGK431-299" value="&lt;font style=&quot;font-size: 36px;&quot; color=&quot;#ffffff&quot;&gt;Jane Smith&lt;/font&gt;" style="text;html=1;align=center;verticalAlign=middle;whiteSpace=wrap;rounded=0;fontFamily=Georgia;fontSize=36;fontColor=default;labelBackgroundColor=none;" vertex="1" parent="M1QpUfeUCg4roTGGK431-296">
          <mxGeometry x="278.6219512195122" y="41.08843537414966" width="197.7317073170732" height="30.816326530612244" as="geometry" />
        </mxCell>
        <mxCell id="M1QpUfeUCg4roTGGK431-333" value="" style="group" vertex="1" connectable="0" parent="M1QpUfeUCg4roTGGK431-284">
          <mxGeometry x="70" y="271.18367346938777" width="930" height="112.99319727891157" as="geometry" />
        </mxCell>
        <mxCell id="M1QpUfeUCg4roTGGK431-334" value="" style="rounded=1;whiteSpace=wrap;html=1;shadow=1;fillColor=default;strokeColor=none;arcSize=16;" vertex="1" parent="M1QpUfeUCg4roTGGK431-333">
          <mxGeometry width="930" height="112.99319727891157" as="geometry" />
        </mxCell>
        <mxCell id="M1QpUfeUCg4roTGGK431-335" value="&lt;font style=&quot;font-size: 20px;&quot;&gt;Personal Details&lt;/font&gt;" style="text;html=1;align=left;verticalAlign=middle;whiteSpace=wrap;rounded=0;fontSize=20;fontFamily=DM Sans;fontSource=https%3A%2F%2Ffonts.googleapis.com%2Fcss%3Ffamily%3DDM%2BSans;fontColor=#25677b;fontStyle=1" vertex="1" parent="M1QpUfeUCg4roTGGK431-333">
          <mxGeometry x="40" y="39.034013605442176" width="220" height="30.816326530612244" as="geometry" />
        </mxCell>
        <mxCell id="M1QpUfeUCg4roTGGK431-336" value="" style="shape=image;html=1;verticalAlign=top;verticalLabelPosition=bottom;labelBackgroundColor=none;imageAspect=0;aspect=fixed;image=https://cdn3.iconfinder.com/data/icons/user-interface-169/32/chevron-bottom-128.png;fontFamily=Helvetica;fontSize=11;fontColor=none;noLabel=1;rotation=0;" vertex="1" parent="M1QpUfeUCg4roTGGK431-333">
          <mxGeometry x="851" y="44.17006802721089" width="25" height="25" as="geometry" />
        </mxCell>
        <mxCell id="M1QpUfeUCg4roTGGK431-300" value="" style="rounded=1;whiteSpace=wrap;html=1;shadow=1;fillColor=default;strokeColor=none;arcSize=2;" vertex="1" parent="M1QpUfeUCg4roTGGK431-284">
          <mxGeometry x="72" y="550.8299319727892" width="930" height="929.625850340136" as="geometry" />
        </mxCell>
        <mxCell id="M1QpUfeUCg4roTGGK431-301" value="&lt;font data-font-src=&quot;https://fonts.googleapis.com/css?family=DM+Sans&quot; face=&quot;DM Sans&quot; style=&quot;font-size: 20px;&quot;&gt;Experience&lt;/font&gt;" style="text;html=1;align=left;verticalAlign=middle;whiteSpace=wrap;rounded=0;fontSize=20;fontFamily=Libre Baskerville;fontSource=https%3A%2F%2Ffonts.googleapis.com%2Fcss%3Ffamily%3DLibre%2BBaskerville;fontColor=#25677b;fontStyle=1" vertex="1" parent="M1QpUfeUCg4roTGGK431-284">
          <mxGeometry x="112" y="589.8639455782313" width="220" height="30.816326530612244" as="geometry" />
        </mxCell>
        <mxCell id="M1QpUfeUCg4roTGGK431-305" value="" style="group;fontFamily=DM Sans;fontSource=https%3A%2F%2Ffonts.googleapis.com%2Fcss%3Ffamily%3DDM%2BSans;" vertex="1" connectable="0" parent="M1QpUfeUCg4roTGGK431-284">
          <mxGeometry x="110" y="864.1292517006802" width="830" height="71.90476190476191" as="geometry" />
        </mxCell>
        <mxCell id="M1QpUfeUCg4roTGGK431-306" value="&lt;font face=&quot;DM Sans&quot;&gt;&lt;span style=&quot;font-size: 16px;&quot;&gt;Job Title&lt;/span&gt;&lt;/font&gt;" style="fillColor=none;strokeColor=none;html=1;fontSize=12;fontStyle=0;align=left;fontColor=#596780;fontStyle=1;fontSize=11;fontFamily=Helvetica;labelBackgroundColor=default;" vertex="1" parent="M1QpUfeUCg4roTGGK431-305">
          <mxGeometry width="830" height="20.54421768707483" as="geometry" />
        </mxCell>
        <mxCell id="M1QpUfeUCg4roTGGK431-307" value="&lt;font face=&quot;DM Sans&quot; data-font-src=&quot;https://fonts.googleapis.com/css?family=DM+Sans&quot;&gt;Business Analyst&lt;/font&gt;" style="rounded=1;arcSize=9;fillColor=#F7F8F9;align=left;spacingLeft=5;strokeColor=#DEE1E6;html=1;strokeWidth=2;fontSize=16;fontFamily=Helvetica;fontColor=#B3B3B3;labelBackgroundColor=none;" vertex="1" parent="M1QpUfeUCg4roTGGK431-305">
          <mxGeometry y="25.68027210884354" width="830" height="46.224489795918366" as="geometry" />
        </mxCell>
        <mxCell id="M1QpUfeUCg4roTGGK431-311" value="" style="line;strokeWidth=1;rotatable=0;dashed=0;labelPosition=right;align=left;verticalAlign=middle;spacingTop=0;spacingLeft=6;points=[];portConstraint=eastwest;fontFamily=Helvetica;fontSize=11;fontColor=default;labelBackgroundColor=default;fillColor=none;strokeColor=#E8E8E8;container=0;" vertex="1" parent="M1QpUfeUCg4roTGGK431-284">
          <mxGeometry x="112" y="653.5510204081633" width="830" height="10.272108843537415" as="geometry" />
        </mxCell>
        <mxCell id="M1QpUfeUCg4roTGGK431-312" value="" style="html=1;dashed=0;aspect=fixed;verticalLabelPosition=bottom;verticalAlign=top;align=center;shape=mxgraph.gmdl.edit;strokeColor=none;fillColor=#000000;shadow=0;sketch=0;fontFamily=Helvetica;fontSize=11;fontColor=default;labelBackgroundColor=default;container=0;" vertex="1" parent="M1QpUfeUCg4roTGGK431-284">
          <mxGeometry x="842" y="690.530612244898" width="22" height="22" as="geometry" />
        </mxCell>
        <mxCell id="M1QpUfeUCg4roTGGK431-313" value="" style="line;strokeWidth=1;rotatable=0;dashed=0;labelPosition=right;align=left;verticalAlign=middle;spacingTop=0;spacingLeft=6;points=[];portConstraint=eastwest;fontFamily=Helvetica;fontSize=11;fontColor=default;labelBackgroundColor=default;fillColor=none;strokeColor=#E8E8E8;container=0;" vertex="1" parent="M1QpUfeUCg4roTGGK431-284">
          <mxGeometry x="112" y="746" width="830" height="10.272108843537415" as="geometry" />
        </mxCell>
        <mxCell id="M1QpUfeUCg4roTGGK431-314" value="" style="line;strokeWidth=1;rotatable=0;dashed=0;labelPosition=right;align=left;verticalAlign=middle;spacingTop=0;spacingLeft=6;points=[];portConstraint=eastwest;fontFamily=Helvetica;fontSize=11;fontColor=default;labelBackgroundColor=default;fillColor=none;strokeColor=#E8E8E8;container=0;" vertex="1" parent="M1QpUfeUCg4roTGGK431-284">
          <mxGeometry x="112" y="838.4489795918367" width="830" height="10.272108843537415" as="geometry" />
        </mxCell>
        <mxCell id="M1QpUfeUCg4roTGGK431-315" value="&lt;div style=&quot;line-height: 180%;&quot;&gt;&lt;span style=&quot;font-family: &amp;quot;DM Sans&amp;quot;; font-size: 16px;&quot;&gt;&lt;b&gt;Associate Analyst&lt;/b&gt;&lt;/span&gt;&lt;/div&gt;&lt;div style=&quot;line-height: 180%;&quot;&gt;&lt;span style=&quot;font-family: &amp;quot;DM Sans&amp;quot;; font-size: 12px;&quot;&gt;Telstra&lt;/span&gt;&lt;br&gt;&lt;/div&gt;&lt;div style=&quot;font-size: 12px; line-height: 180%;&quot;&gt;&lt;font face=&quot;DM Sans&quot; color=&quot;#a1a1a1&quot;&gt;Mar 2014 - 2017&lt;/font&gt;&lt;/div&gt;" style="text;html=1;align=left;verticalAlign=middle;whiteSpace=wrap;rounded=0;fontFamily=Helvetica;fontSize=11;fontColor=default;labelBackgroundColor=default;container=0;" vertex="1" parent="M1QpUfeUCg4roTGGK431-284">
          <mxGeometry x="112" y="759.3537414965987" width="373.5920177383592" height="82.17687074829932" as="geometry" />
        </mxCell>
        <mxCell id="M1QpUfeUCg4roTGGK431-316" value="" style="shape=image;html=1;verticalAlign=top;verticalLabelPosition=bottom;labelBackgroundColor=#ffffff;imageAspect=0;aspect=fixed;image=https://cdn0.iconfinder.com/data/icons/google-material-design-3-0/48/ic_delete_forever_48px-128.png;fontFamily=Helvetica;fontSize=11;fontColor=default;container=0;" vertex="1" parent="M1QpUfeUCg4roTGGK431-284">
          <mxGeometry x="892" y="778.8707482993198" width="30" height="30" as="geometry" />
        </mxCell>
        <mxCell id="M1QpUfeUCg4roTGGK431-317" value="" style="html=1;dashed=0;aspect=fixed;verticalLabelPosition=bottom;verticalAlign=top;align=center;shape=mxgraph.gmdl.edit;strokeColor=none;fillColor=#000000;shadow=0;sketch=0;fontFamily=Helvetica;fontSize=11;fontColor=default;labelBackgroundColor=default;container=0;" vertex="1" parent="M1QpUfeUCg4roTGGK431-284">
          <mxGeometry x="842" y="782.9795918367347" width="22" height="22" as="geometry" />
        </mxCell>
        <mxCell id="M1QpUfeUCg4roTGGK431-318" value="&lt;div style=&quot;line-height: 180%;&quot;&gt;&lt;span style=&quot;font-size: 16px;&quot;&gt;&lt;b&gt;&lt;font data-font-src=&quot;https://fonts.googleapis.com/css?family=DM+Sans&quot; face=&quot;DM Sans&quot;&gt;Senior Risk Analyst&lt;/font&gt;&lt;/b&gt;&lt;/span&gt;&lt;/div&gt;&lt;div style=&quot;line-height: 180%;&quot;&gt;&lt;span style=&quot;font-size: 12px;&quot;&gt;&lt;font face=&quot;DM Sans&quot;&gt;Westpac&lt;/font&gt;&lt;/span&gt;&lt;br&gt;&lt;/div&gt;&lt;div style=&quot;font-size: 12px; line-height: 180%;&quot;&gt;&lt;font data-font-src=&quot;https://fonts.googleapis.com/css?family=DM+Sans&quot; face=&quot;DM Sans&quot; color=&quot;#a1a1a1&quot; style=&quot;font-size: 12px;&quot;&gt;Sep 2020 - Present&lt;/font&gt;&lt;/div&gt;" style="text;html=1;align=left;verticalAlign=middle;whiteSpace=wrap;rounded=0;fontFamily=Helvetica;fontSize=11;fontColor=default;labelBackgroundColor=default;container=0;" vertex="1" parent="M1QpUfeUCg4roTGGK431-284">
          <mxGeometry x="112" y="667.9319727891157" width="373.5920177383592" height="82.17687074829932" as="geometry" />
        </mxCell>
        <mxCell id="M1QpUfeUCg4roTGGK431-319" value="" style="shape=image;html=1;verticalAlign=top;verticalLabelPosition=bottom;labelBackgroundColor=#ffffff;imageAspect=0;aspect=fixed;image=https://cdn0.iconfinder.com/data/icons/google-material-design-3-0/48/ic_delete_forever_48px-128.png;fontFamily=Helvetica;fontSize=11;fontColor=default;container=0;" vertex="1" parent="M1QpUfeUCg4roTGGK431-284">
          <mxGeometry x="892" y="688.4761904761905" width="30" height="30" as="geometry" />
        </mxCell>
        <mxCell id="M1QpUfeUCg4roTGGK431-320" value="" style="group" vertex="1" connectable="0" parent="M1QpUfeUCg4roTGGK431-284">
          <mxGeometry x="112" y="1060.3265306122448" width="381" height="71.90476190476191" as="geometry" />
        </mxCell>
        <mxCell id="M1QpUfeUCg4roTGGK431-321" value="" style="group;fontFamily=DM Sans;fontSource=https%3A%2F%2Ffonts.googleapis.com%2Fcss%3Ffamily%3DDM%2BSans;" vertex="1" connectable="0" parent="M1QpUfeUCg4roTGGK431-320">
          <mxGeometry width="180" height="71.90476190476191" as="geometry" />
        </mxCell>
        <mxCell id="M1QpUfeUCg4roTGGK431-322" value="&lt;font data-font-src=&quot;https://fonts.googleapis.com/css?family=DM+Sans&quot; face=&quot;DM Sans&quot; style=&quot;font-size: 16px;&quot;&gt;Start date&lt;/font&gt;" style="fillColor=none;strokeColor=none;html=1;fontSize=12;fontStyle=0;align=left;fontColor=#596780;fontStyle=1;fontSize=11;fontFamily=Helvetica;labelBackgroundColor=default;" vertex="1" parent="M1QpUfeUCg4roTGGK431-321">
          <mxGeometry width="180" height="20.54421768707483" as="geometry" />
        </mxCell>
        <mxCell id="M1QpUfeUCg4roTGGK431-323" value="&lt;font face=&quot;DM Sans&quot; data-font-src=&quot;https://fonts.googleapis.com/css?family=DM+Sans&quot;&gt;March&lt;/font&gt;" style="rounded=1;arcSize=9;fillColor=#F7F8F9;align=left;spacingLeft=5;strokeColor=#DEE1E6;html=1;strokeWidth=2;fontSize=16;fontFamily=Helvetica;fontColor=#B3B3B3;labelBackgroundColor=none;" vertex="1" parent="M1QpUfeUCg4roTGGK431-321">
          <mxGeometry y="25.68027210884354" width="180" height="46.224489795918366" as="geometry" />
        </mxCell>
        <mxCell id="M1QpUfeUCg4roTGGK431-324" value="" style="verticalLabelPosition=bottom;verticalAlign=top;html=1;shape=mxgraph.basic.acute_triangle;dx=0.5;rotation=-180;fillColor=#B3B3B3;aspect=fixed;strokeColor=none;" vertex="1" parent="M1QpUfeUCg4roTGGK431-321">
          <mxGeometry x="160" y="47.38523809523821" width="8" height="6.74" as="geometry" />
        </mxCell>
        <mxCell id="M1QpUfeUCg4roTGGK431-325" value="" style="group;fontFamily=DM Sans;fontSource=https%3A%2F%2Ffonts.googleapis.com%2Fcss%3Ffamily%3DDM%2BSans;" vertex="1" connectable="0" parent="M1QpUfeUCg4roTGGK431-320">
          <mxGeometry x="201" width="180" height="71.90476190476191" as="geometry" />
        </mxCell>
        <mxCell id="M1QpUfeUCg4roTGGK431-326" value="&lt;font face=&quot;DM Sans&quot; data-font-src=&quot;https://fonts.googleapis.com/css?family=DM+Sans&quot;&gt;2020&lt;/font&gt;" style="rounded=1;arcSize=9;fillColor=#F7F8F9;align=left;spacingLeft=5;strokeColor=#DEE1E6;html=1;strokeWidth=2;fontSize=16;fontFamily=Helvetica;fontColor=#B3B3B3;labelBackgroundColor=none;" vertex="1" parent="M1QpUfeUCg4roTGGK431-325">
          <mxGeometry y="25.68027210884354" width="180" height="46.224489795918366" as="geometry" />
        </mxCell>
        <mxCell id="M1QpUfeUCg4roTGGK431-327" value="" style="verticalLabelPosition=bottom;verticalAlign=top;html=1;shape=mxgraph.basic.acute_triangle;dx=0.5;rotation=-180;fillColor=#B3B3B3;aspect=fixed;strokeColor=none;" vertex="1" parent="M1QpUfeUCg4roTGGK431-325">
          <mxGeometry x="159" y="47.38523809523821" width="8" height="6.74" as="geometry" />
        </mxCell>
        <mxCell id="M1QpUfeUCg4roTGGK431-328" value="Save" style="html=1;shadow=0;dashed=0;shape=mxgraph.bootstrap.rrect;rSize=5;strokeColor=#00cbb7;strokeWidth=2;fillColor=none;fontColor=#00CBB7;whiteSpace=wrap;align=center;verticalAlign=middle;spacingLeft=0;fontStyle=1;fontSize=16;spacing=5;fontFamily=DM Sans;fontSource=https%3A%2F%2Ffonts.googleapis.com%2Fcss%3Ffamily%3DDM%2BSans;" vertex="1" parent="M1QpUfeUCg4roTGGK431-284">
          <mxGeometry x="722" y="1398.2789115646258" width="100" height="41.08843537414966" as="geometry" />
        </mxCell>
        <mxCell id="M1QpUfeUCg4roTGGK431-329" value="Cancel" style="html=1;shadow=0;dashed=0;shape=mxgraph.bootstrap.rrect;rSize=5;strokeColor=#8490B3;strokeWidth=2;fillColor=none;fontColor=#8490B3;whiteSpace=wrap;align=center;verticalAlign=middle;spacingLeft=0;fontStyle=1;fontSize=16;spacing=5;fontFamily=DM Sans;fontSource=https%3A%2F%2Ffonts.googleapis.com%2Fcss%3Ffamily%3DDM%2BSans;" vertex="1" parent="M1QpUfeUCg4roTGGK431-284">
          <mxGeometry x="842" y="1398.2789115646258" width="100" height="41.08843537414966" as="geometry" />
        </mxCell>
        <mxCell id="M1QpUfeUCg4roTGGK431-337" value="" style="shape=image;html=1;verticalAlign=top;verticalLabelPosition=bottom;labelBackgroundColor=none;imageAspect=0;aspect=fixed;image=https://cdn3.iconfinder.com/data/icons/user-interface-169/32/chevron-bottom-128.png;fontFamily=Helvetica;fontSize=11;fontColor=none;noLabel=1;rotation=-180;" vertex="1" parent="M1QpUfeUCg4roTGGK431-284">
          <mxGeometry x="923" y="595" width="25" height="25" as="geometry" />
        </mxCell>
        <mxCell id="M1QpUfeUCg4roTGGK431-397" value="" style="group;fontFamily=DM Sans;fontSource=https%3A%2F%2Ffonts.googleapis.com%2Fcss%3Ffamily%3DDM%2BSans;" vertex="1" connectable="0" parent="M1QpUfeUCg4roTGGK431-284">
          <mxGeometry x="110" y="961.7142857142858" width="830" height="71.90476190476191" as="geometry" />
        </mxCell>
        <mxCell id="M1QpUfeUCg4roTGGK431-398" value="&lt;font face=&quot;DM Sans&quot;&gt;&lt;span style=&quot;font-size: 16px;&quot;&gt;Employer&lt;/span&gt;&lt;/font&gt;" style="fillColor=none;strokeColor=none;html=1;fontSize=12;fontStyle=0;align=left;fontColor=#596780;fontStyle=1;fontSize=11;fontFamily=Helvetica;labelBackgroundColor=default;" vertex="1" parent="M1QpUfeUCg4roTGGK431-397">
          <mxGeometry width="830" height="20.54421768707483" as="geometry" />
        </mxCell>
        <mxCell id="M1QpUfeUCg4roTGGK431-399" value="&lt;font face=&quot;DM Sans&quot;&gt;ANZ Plus&lt;/font&gt;" style="rounded=1;arcSize=9;fillColor=#F7F8F9;align=left;spacingLeft=5;strokeColor=#DEE1E6;html=1;strokeWidth=2;fontSize=16;fontFamily=Helvetica;fontColor=#B3B3B3;labelBackgroundColor=none;" vertex="1" parent="M1QpUfeUCg4roTGGK431-397">
          <mxGeometry y="25.68027210884354" width="830" height="46.224489795918366" as="geometry" />
        </mxCell>
        <mxCell id="M1QpUfeUCg4roTGGK431-408" value="" style="group;fontFamily=DM Sans;fontSource=https%3A%2F%2Ffonts.googleapis.com%2Fcss%3Ffamily%3DDM%2BSans;" vertex="1" connectable="0" parent="M1QpUfeUCg4roTGGK431-284">
          <mxGeometry x="110" y="1151.748299319728" width="830" height="225.98639455782313" as="geometry" />
        </mxCell>
        <mxCell id="M1QpUfeUCg4roTGGK431-409" value="&lt;font face=&quot;DM Sans&quot;&gt;&lt;span style=&quot;font-size: 16px;&quot;&gt;Description (responsibilities, achievements, etc)&lt;/span&gt;&lt;/font&gt;" style="fillColor=none;strokeColor=none;html=1;fontSize=12;fontStyle=0;align=left;fontColor=#596780;fontStyle=1;fontSize=11;fontFamily=Helvetica;labelBackgroundColor=default;" vertex="1" parent="M1QpUfeUCg4roTGGK431-408">
          <mxGeometry width="830" height="20.54421768707483" as="geometry" />
        </mxCell>
        <mxCell id="M1QpUfeUCg4roTGGK431-410" value="" style="rounded=1;arcSize=5;fillColor=#F7F8F9;align=left;spacingLeft=5;strokeColor=#DEE1E6;html=1;strokeWidth=2;fontSize=16;fontFamily=Helvetica;fontColor=#B3B3B3;labelBackgroundColor=none;" vertex="1" parent="M1QpUfeUCg4roTGGK431-408">
          <mxGeometry y="25.68027210884354" width="830" height="200.3061224489796" as="geometry" />
        </mxCell>
        <mxCell id="M1QpUfeUCg4roTGGK431-412" value="it might be better to not show previous entries to avoid issues when user wants to edit one in the middle of adding a new one?" style="rounded=1;whiteSpace=wrap;html=1;fontFamily=Helvetica;fontSize=11;fontColor=#000000;labelBackgroundColor=none;fillColor=#fa6800;strokeColor=#C73500;" vertex="1" parent="M1QpUfeUCg4roTGGK431-284">
          <mxGeometry x="-40" y="570" width="120" height="142.53" as="geometry" />
        </mxCell>
        <mxCell id="M1QpUfeUCg4roTGGK431-413" value="Start date cannot be in the future" style="text;html=1;align=center;verticalAlign=middle;whiteSpace=wrap;rounded=0;fontFamily=Courier New;fillColor=#fff2cc;strokeColor=#d6b656;" vertex="1" parent="M1QpUfeUCg4roTGGK431-284">
          <mxGeometry x="-60" y="1050" width="120" height="130" as="geometry" />
        </mxCell>
        <mxCell id="M1QpUfeUCg4roTGGK431-340" value="" style="group" vertex="1" connectable="0" parent="1">
          <mxGeometry x="3320" y="1600" width="1920" height="1390" as="geometry" />
        </mxCell>
        <mxCell id="M1QpUfeUCg4roTGGK431-341" value="" style="strokeWidth=1;shadow=0;dashed=0;align=center;html=1;shape=mxgraph.mockup.containers.browserWindow;rSize=0;strokeColor=#666666;strokeColor2=#008cff;strokeColor3=#c4c4c4;mainText=,;recursiveResize=0;" vertex="1" parent="M1QpUfeUCg4roTGGK431-340">
          <mxGeometry width="1920" height="1390" as="geometry" />
        </mxCell>
        <mxCell id="M1QpUfeUCg4roTGGK431-342" value="" style="rounded=0;whiteSpace=wrap;html=1;strokeColor=none;fillColor=#f1f6fd;" vertex="1" parent="M1QpUfeUCg4roTGGK431-340">
          <mxGeometry y="110" width="1920" height="1280" as="geometry" />
        </mxCell>
        <mxCell id="M1QpUfeUCg4roTGGK431-343" value="" style="group;fontStyle=0" vertex="1" connectable="0" parent="M1QpUfeUCg4roTGGK431-340">
          <mxGeometry x="70" y="140" width="930" height="80" as="geometry" />
        </mxCell>
        <mxCell id="M1QpUfeUCg4roTGGK431-344" value="" style="rounded=1;whiteSpace=wrap;html=1;shadow=1;fillColor=default;strokeColor=none;" vertex="1" parent="M1QpUfeUCg4roTGGK431-343">
          <mxGeometry width="930" height="80" as="geometry" />
        </mxCell>
        <mxCell id="M1QpUfeUCg4roTGGK431-345" value="&lt;span&gt;Clear all&lt;/span&gt;" style="html=1;shadow=0;dashed=0;shape=mxgraph.bootstrap.rrect;rSize=5;strokeColor=#8490B3;strokeWidth=2;fillColor=none;fontColor=#8490B3;whiteSpace=wrap;align=center;verticalAlign=middle;spacingLeft=0;fontStyle=1;fontSize=16;spacing=5;fontFamily=DM Sans;fontSource=https%3A%2F%2Ffonts.googleapis.com%2Fcss%3Ffamily%3DDM%2BSans;" vertex="1" parent="M1QpUfeUCg4roTGGK431-343">
          <mxGeometry x="780" y="20" width="100" height="40" as="geometry" />
        </mxCell>
        <mxCell id="M1QpUfeUCg4roTGGK431-346" value="Download" style="html=1;shadow=0;dashed=0;shape=mxgraph.bootstrap.rrect;rSize=5;strokeColor=#00cbb7;strokeWidth=2;fillColor=#00cbb7;fontColor=#FFFFFF;whiteSpace=wrap;align=center;verticalAlign=middle;spacingLeft=0;fontStyle=1;fontSize=16;spacing=5;fontFamily=DM Sans;fontSource=https%3A%2F%2Ffonts.googleapis.com%2Fcss%3Ffamily%3DDM%2BSans;" vertex="1" parent="M1QpUfeUCg4roTGGK431-343">
          <mxGeometry x="650" y="20" width="110" height="40" as="geometry" />
        </mxCell>
        <mxCell id="M1QpUfeUCg4roTGGK431-347" value="CV Gen" style="text;html=1;align=left;verticalAlign=middle;whiteSpace=wrap;rounded=0;fontSize=36;fontFamily=Arizonia;fontSource=https%3A%2F%2Ffonts.googleapis.com%2Fcss%3Ffamily%3DArizonia;fontColor=#00a9ad;" vertex="1" parent="M1QpUfeUCg4roTGGK431-343">
          <mxGeometry x="40" y="25" width="250" height="30" as="geometry" />
        </mxCell>
        <mxCell id="M1QpUfeUCg4roTGGK431-348" value="" style="group" vertex="1" connectable="0" parent="M1QpUfeUCg4roTGGK431-340">
          <mxGeometry x="70" y="400" width="930" height="110" as="geometry" />
        </mxCell>
        <mxCell id="M1QpUfeUCg4roTGGK431-349" value="" style="rounded=1;whiteSpace=wrap;html=1;shadow=1;fillColor=default;strokeColor=none;arcSize=16;" vertex="1" parent="M1QpUfeUCg4roTGGK431-348">
          <mxGeometry width="930" height="110" as="geometry" />
        </mxCell>
        <mxCell id="M1QpUfeUCg4roTGGK431-350" value="&lt;font style=&quot;font-size: 20px;&quot;&gt;Education&lt;/font&gt;" style="text;html=1;align=left;verticalAlign=middle;whiteSpace=wrap;rounded=0;fontSize=20;fontFamily=DM Sans;fontSource=https%3A%2F%2Ffonts.googleapis.com%2Fcss%3Ffamily%3DDM%2BSans;fontColor=#25677b;fontStyle=1" vertex="1" parent="M1QpUfeUCg4roTGGK431-348">
          <mxGeometry x="40" y="38" width="220" height="30" as="geometry" />
        </mxCell>
        <mxCell id="M1QpUfeUCg4roTGGK431-351" value="" style="shape=image;html=1;verticalAlign=top;verticalLabelPosition=bottom;labelBackgroundColor=none;imageAspect=0;aspect=fixed;image=https://cdn3.iconfinder.com/data/icons/user-interface-169/32/chevron-bottom-128.png;fontFamily=Helvetica;fontSize=11;fontColor=none;noLabel=1;rotation=0;" vertex="1" parent="M1QpUfeUCg4roTGGK431-348">
          <mxGeometry x="855" y="43" width="25" height="25" as="geometry" />
        </mxCell>
        <mxCell id="M1QpUfeUCg4roTGGK431-352" value="" style="group" vertex="1" connectable="0" parent="M1QpUfeUCg4roTGGK431-340">
          <mxGeometry x="1100" y="140" width="737" height="1080" as="geometry" />
        </mxCell>
        <mxCell id="M1QpUfeUCg4roTGGK431-353" value="" style="rounded=1;whiteSpace=wrap;html=1;shadow=1;fillColor=default;strokeColor=none;arcSize=0;fontColor=default;" vertex="1" parent="M1QpUfeUCg4roTGGK431-352">
          <mxGeometry width="737" height="1080" as="geometry" />
        </mxCell>
        <mxCell id="M1QpUfeUCg4roTGGK431-354" value="" style="rounded=0;whiteSpace=wrap;html=1;fontFamily=Helvetica;fontSize=11;fontColor=default;labelBackgroundColor=default;fillColor=#2F4858;strokeColor=none;" vertex="1" parent="M1QpUfeUCg4roTGGK431-352">
          <mxGeometry width="737" height="140" as="geometry" />
        </mxCell>
        <mxCell id="M1QpUfeUCg4roTGGK431-355" value="&lt;font style=&quot;font-size: 36px;&quot; color=&quot;#ffffff&quot;&gt;Jane Smith&lt;/font&gt;" style="text;html=1;align=center;verticalAlign=middle;whiteSpace=wrap;rounded=0;fontFamily=Georgia;fontSize=36;fontColor=default;labelBackgroundColor=none;" vertex="1" parent="M1QpUfeUCg4roTGGK431-352">
          <mxGeometry x="278.6219512195122" y="40" width="197.7317073170732" height="30" as="geometry" />
        </mxCell>
        <mxCell id="M1QpUfeUCg4roTGGK431-356" value="" style="group" vertex="1" connectable="0" parent="M1QpUfeUCg4roTGGK431-340">
          <mxGeometry x="70" y="264" width="930" height="110" as="geometry" />
        </mxCell>
        <mxCell id="M1QpUfeUCg4roTGGK431-357" value="" style="rounded=1;whiteSpace=wrap;html=1;shadow=1;fillColor=default;strokeColor=none;arcSize=16;" vertex="1" parent="M1QpUfeUCg4roTGGK431-356">
          <mxGeometry width="930" height="110" as="geometry" />
        </mxCell>
        <mxCell id="M1QpUfeUCg4roTGGK431-358" value="&lt;font style=&quot;font-size: 20px;&quot;&gt;Personal Details&lt;/font&gt;" style="text;html=1;align=left;verticalAlign=middle;whiteSpace=wrap;rounded=0;fontSize=20;fontFamily=DM Sans;fontSource=https%3A%2F%2Ffonts.googleapis.com%2Fcss%3Ffamily%3DDM%2BSans;fontColor=#25677b;fontStyle=1" vertex="1" parent="M1QpUfeUCg4roTGGK431-356">
          <mxGeometry x="40" y="38" width="220" height="30" as="geometry" />
        </mxCell>
        <mxCell id="M1QpUfeUCg4roTGGK431-359" value="" style="shape=image;html=1;verticalAlign=top;verticalLabelPosition=bottom;labelBackgroundColor=none;imageAspect=0;aspect=fixed;image=https://cdn3.iconfinder.com/data/icons/user-interface-169/32/chevron-bottom-128.png;fontFamily=Helvetica;fontSize=11;fontColor=none;noLabel=1;rotation=0;" vertex="1" parent="M1QpUfeUCg4roTGGK431-356">
          <mxGeometry x="851" y="43" width="25" height="25" as="geometry" />
        </mxCell>
        <mxCell id="M1QpUfeUCg4roTGGK431-360" value="" style="rounded=1;whiteSpace=wrap;html=1;shadow=1;fillColor=default;strokeColor=none;arcSize=2;" vertex="1" parent="M1QpUfeUCg4roTGGK431-340">
          <mxGeometry x="72" y="545" width="930" height="425" as="geometry" />
        </mxCell>
        <mxCell id="M1QpUfeUCg4roTGGK431-361" value="&lt;font data-font-src=&quot;https://fonts.googleapis.com/css?family=DM+Sans&quot; face=&quot;DM Sans&quot; style=&quot;font-size: 20px;&quot;&gt;Experience&lt;/font&gt;" style="text;html=1;align=left;verticalAlign=middle;whiteSpace=wrap;rounded=0;fontSize=20;fontFamily=Libre Baskerville;fontSource=https%3A%2F%2Ffonts.googleapis.com%2Fcss%3Ffamily%3DLibre%2BBaskerville;fontColor=#25677b;fontStyle=1" vertex="1" parent="M1QpUfeUCg4roTGGK431-340">
          <mxGeometry x="112" y="583" width="220" height="30" as="geometry" />
        </mxCell>
        <mxCell id="M1QpUfeUCg4roTGGK431-371" value="" style="line;strokeWidth=1;rotatable=0;dashed=0;labelPosition=right;align=left;verticalAlign=middle;spacingTop=0;spacingLeft=6;points=[];portConstraint=eastwest;fontFamily=Helvetica;fontSize=11;fontColor=default;labelBackgroundColor=default;fillColor=none;strokeColor=#E8E8E8;container=0;" vertex="1" parent="M1QpUfeUCg4roTGGK431-340">
          <mxGeometry x="112" y="645" width="830" height="10" as="geometry" />
        </mxCell>
        <mxCell id="M1QpUfeUCg4roTGGK431-372" value="" style="html=1;dashed=0;aspect=fixed;verticalLabelPosition=bottom;verticalAlign=top;align=center;shape=mxgraph.gmdl.edit;strokeColor=none;fillColor=#000000;shadow=0;sketch=0;fontFamily=Helvetica;fontSize=11;fontColor=default;labelBackgroundColor=default;container=0;" vertex="1" parent="M1QpUfeUCg4roTGGK431-340">
          <mxGeometry x="842" y="681" width="22" height="22" as="geometry" />
        </mxCell>
        <mxCell id="M1QpUfeUCg4roTGGK431-373" value="" style="line;strokeWidth=1;rotatable=0;dashed=0;labelPosition=right;align=left;verticalAlign=middle;spacingTop=0;spacingLeft=6;points=[];portConstraint=eastwest;fontFamily=Helvetica;fontSize=11;fontColor=default;labelBackgroundColor=default;fillColor=none;strokeColor=#E8E8E8;container=0;" vertex="1" parent="M1QpUfeUCg4roTGGK431-340">
          <mxGeometry x="112" y="735" width="830" height="10" as="geometry" />
        </mxCell>
        <mxCell id="M1QpUfeUCg4roTGGK431-374" value="" style="line;strokeWidth=1;rotatable=0;dashed=0;labelPosition=right;align=left;verticalAlign=middle;spacingTop=0;spacingLeft=6;points=[];portConstraint=eastwest;fontFamily=Helvetica;fontSize=11;fontColor=default;labelBackgroundColor=default;fillColor=none;strokeColor=#E8E8E8;container=0;" vertex="1" parent="M1QpUfeUCg4roTGGK431-340">
          <mxGeometry x="112" y="825" width="830" height="10" as="geometry" />
        </mxCell>
        <mxCell id="M1QpUfeUCg4roTGGK431-375" value="&lt;div style=&quot;line-height: 180%;&quot;&gt;&lt;span style=&quot;font-family: &amp;quot;DM Sans&amp;quot;; font-size: 16px;&quot;&gt;&lt;b&gt;Associate Analyst&lt;/b&gt;&lt;/span&gt;&lt;/div&gt;&lt;div style=&quot;line-height: 180%;&quot;&gt;&lt;span style=&quot;font-family: &amp;quot;DM Sans&amp;quot;; font-size: 12px;&quot;&gt;Telstra&lt;/span&gt;&lt;br&gt;&lt;/div&gt;&lt;div style=&quot;font-size: 12px; line-height: 180%;&quot;&gt;&lt;font face=&quot;DM Sans&quot; color=&quot;#a1a1a1&quot;&gt;Mar 2014 - 2017&lt;/font&gt;&lt;/div&gt;" style="text;html=1;align=left;verticalAlign=middle;whiteSpace=wrap;rounded=0;fontFamily=Helvetica;fontSize=11;fontColor=default;labelBackgroundColor=default;container=0;" vertex="1" parent="M1QpUfeUCg4roTGGK431-340">
          <mxGeometry x="112" y="748" width="373.5920177383592" height="80" as="geometry" />
        </mxCell>
        <mxCell id="M1QpUfeUCg4roTGGK431-376" value="" style="shape=image;html=1;verticalAlign=top;verticalLabelPosition=bottom;labelBackgroundColor=#ffffff;imageAspect=0;aspect=fixed;image=https://cdn0.iconfinder.com/data/icons/google-material-design-3-0/48/ic_delete_forever_48px-128.png;fontFamily=Helvetica;fontSize=11;fontColor=default;container=0;" vertex="1" parent="M1QpUfeUCg4roTGGK431-340">
          <mxGeometry x="892" y="767" width="30" height="30" as="geometry" />
        </mxCell>
        <mxCell id="M1QpUfeUCg4roTGGK431-377" value="" style="html=1;dashed=0;aspect=fixed;verticalLabelPosition=bottom;verticalAlign=top;align=center;shape=mxgraph.gmdl.edit;strokeColor=none;fillColor=#000000;shadow=0;sketch=0;fontFamily=Helvetica;fontSize=11;fontColor=default;labelBackgroundColor=default;container=0;" vertex="1" parent="M1QpUfeUCg4roTGGK431-340">
          <mxGeometry x="842" y="771" width="22" height="22" as="geometry" />
        </mxCell>
        <mxCell id="M1QpUfeUCg4roTGGK431-378" value="&lt;div style=&quot;line-height: 180%;&quot;&gt;&lt;span style=&quot;font-size: 16px;&quot;&gt;&lt;b&gt;&lt;font data-font-src=&quot;https://fonts.googleapis.com/css?family=DM+Sans&quot; face=&quot;DM Sans&quot;&gt;Senior Risk Analyst&lt;/font&gt;&lt;/b&gt;&lt;/span&gt;&lt;/div&gt;&lt;div style=&quot;line-height: 180%;&quot;&gt;&lt;span style=&quot;font-size: 12px;&quot;&gt;&lt;font face=&quot;DM Sans&quot;&gt;Westpac&lt;/font&gt;&lt;/span&gt;&lt;br&gt;&lt;/div&gt;&lt;div style=&quot;font-size: 12px; line-height: 180%;&quot;&gt;&lt;font data-font-src=&quot;https://fonts.googleapis.com/css?family=DM+Sans&quot; face=&quot;DM Sans&quot; color=&quot;#a1a1a1&quot; style=&quot;font-size: 12px;&quot;&gt;Sep 2020 - Present&lt;/font&gt;&lt;/div&gt;" style="text;html=1;align=left;verticalAlign=middle;whiteSpace=wrap;rounded=0;fontFamily=Helvetica;fontSize=11;fontColor=default;labelBackgroundColor=default;container=0;" vertex="1" parent="M1QpUfeUCg4roTGGK431-340">
          <mxGeometry x="112" y="659" width="373.5920177383592" height="80" as="geometry" />
        </mxCell>
        <mxCell id="M1QpUfeUCg4roTGGK431-379" value="" style="shape=image;html=1;verticalAlign=top;verticalLabelPosition=bottom;labelBackgroundColor=#ffffff;imageAspect=0;aspect=fixed;image=https://cdn0.iconfinder.com/data/icons/google-material-design-3-0/48/ic_delete_forever_48px-128.png;fontFamily=Helvetica;fontSize=11;fontColor=default;container=0;" vertex="1" parent="M1QpUfeUCg4roTGGK431-340">
          <mxGeometry x="892" y="679" width="30" height="30" as="geometry" />
        </mxCell>
        <mxCell id="M1QpUfeUCg4roTGGK431-390" value="" style="shape=image;html=1;verticalAlign=top;verticalLabelPosition=bottom;labelBackgroundColor=none;imageAspect=0;aspect=fixed;image=https://cdn3.iconfinder.com/data/icons/user-interface-169/32/chevron-bottom-128.png;fontFamily=Helvetica;fontSize=11;fontColor=none;noLabel=1;rotation=-180;" vertex="1" parent="M1QpUfeUCg4roTGGK431-340">
          <mxGeometry x="923" y="588" width="25" height="25" as="geometry" />
        </mxCell>
        <mxCell id="M1QpUfeUCg4roTGGK431-391" value="In future, enable reordering. Right now, sort by reverse chronological order (newest at top)" style="text;html=1;align=center;verticalAlign=middle;whiteSpace=wrap;rounded=0;fontFamily=Courier New;fillColor=#f0a30a;strokeColor=#BD7000;fontColor=#000000;" vertex="1" parent="M1QpUfeUCg4roTGGK431-340">
          <mxGeometry x="942" y="637" width="120" height="130" as="geometry" />
        </mxCell>
        <mxCell id="M1QpUfeUCg4roTGGK431-392" value="" style="group" vertex="1" connectable="0" parent="1">
          <mxGeometry x="3430" y="2460" width="830" height="57" as="geometry" />
        </mxCell>
        <mxCell id="M1QpUfeUCg4roTGGK431-393" value="&lt;blockquote style=&quot;margin: 0 0 0 40px; border: none; padding: 0px;&quot;&gt;Add another experience&lt;/blockquote&gt;" style="html=1;shadow=0;dashed=0;shape=mxgraph.bootstrap.rrect;rSize=5;strokeColor=#00cbb7;strokeWidth=2;fillColor=none;fontColor=#00CBB7;whiteSpace=wrap;align=center;verticalAlign=middle;spacingLeft=0;fontStyle=1;fontSize=16;spacing=5;fontFamily=DM Sans;fontSource=https%3A%2F%2Ffonts.googleapis.com%2Fcss%3Ffamily%3DDM%2BSans;" vertex="1" parent="M1QpUfeUCg4roTGGK431-392">
          <mxGeometry width="830" height="57" as="geometry" />
        </mxCell>
        <mxCell id="M1QpUfeUCg4roTGGK431-394" value="" style="html=1;verticalLabelPosition=bottom;align=center;labelBackgroundColor=#ffffff;verticalAlign=top;strokeWidth=2;strokeColor=#00CBB7;shadow=0;dashed=0;shape=mxgraph.ios7.icons.add;fillColor=none;aspect=fixed;" vertex="1" parent="M1QpUfeUCg4roTGGK431-392">
          <mxGeometry x="300.00458333333336" y="18.5" width="20" height="20" as="geometry" />
        </mxCell>
        <mxCell id="M1QpUfeUCg4roTGGK431-395" style="edgeStyle=orthogonalEdgeStyle;shape=connector;curved=1;rounded=0;orthogonalLoop=1;jettySize=auto;html=1;entryX=0;entryY=0.5;entryDx=0;entryDy=0;strokeColor=#314354;align=center;verticalAlign=middle;fontFamily=Helvetica;fontSize=11;fontColor=default;labelBackgroundColor=default;endArrow=classic;flowAnimation=1;fillColor=#647687;" edge="1" parent="1" source="M1QpUfeUCg4roTGGK431-59" target="M1QpUfeUCg4roTGGK431-342">
          <mxGeometry relative="1" as="geometry" />
        </mxCell>
        <mxCell id="M1QpUfeUCg4roTGGK431-396" style="edgeStyle=orthogonalEdgeStyle;shape=connector;curved=1;rounded=0;orthogonalLoop=1;jettySize=auto;html=1;entryX=0;entryY=0.5;entryDx=0;entryDy=0;strokeColor=#314354;align=center;verticalAlign=middle;fontFamily=Helvetica;fontSize=11;fontColor=default;labelBackgroundColor=default;endArrow=classic;flowAnimation=1;fillColor=#647687;" edge="1" parent="1" source="M1QpUfeUCg4roTGGK431-393" target="M1QpUfeUCg4roTGGK431-286">
          <mxGeometry relative="1" as="geometry" />
        </mxCell>
        <mxCell id="M1QpUfeUCg4roTGGK431-400" value="" style="group" vertex="1" connectable="0" parent="1">
          <mxGeometry x="5989" y="2661" width="381" height="70" as="geometry" />
        </mxCell>
        <mxCell id="M1QpUfeUCg4roTGGK431-401" value="" style="group;fontFamily=DM Sans;fontSource=https%3A%2F%2Ffonts.googleapis.com%2Fcss%3Ffamily%3DDM%2BSans;" vertex="1" connectable="0" parent="M1QpUfeUCg4roTGGK431-400">
          <mxGeometry width="180" height="70" as="geometry" />
        </mxCell>
        <mxCell id="M1QpUfeUCg4roTGGK431-402" value="&lt;font data-font-src=&quot;https://fonts.googleapis.com/css?family=DM+Sans&quot; face=&quot;DM Sans&quot; style=&quot;font-size: 16px;&quot;&gt;End date&lt;/font&gt;" style="fillColor=none;strokeColor=none;html=1;fontSize=12;fontStyle=0;align=left;fontColor=#596780;fontStyle=1;fontSize=11;fontFamily=Helvetica;labelBackgroundColor=default;" vertex="1" parent="M1QpUfeUCg4roTGGK431-401">
          <mxGeometry width="180" height="20" as="geometry" />
        </mxCell>
        <mxCell id="M1QpUfeUCg4roTGGK431-403" value="&lt;font face=&quot;DM Sans&quot; data-font-src=&quot;https://fonts.googleapis.com/css?family=DM+Sans&quot;&gt;September&lt;/font&gt;" style="rounded=1;arcSize=9;fillColor=#F7F8F9;align=left;spacingLeft=5;strokeColor=#DEE1E6;html=1;strokeWidth=2;fontSize=16;fontFamily=Helvetica;fontColor=#B3B3B3;labelBackgroundColor=none;" vertex="1" parent="M1QpUfeUCg4roTGGK431-401">
          <mxGeometry y="25" width="180" height="45" as="geometry" />
        </mxCell>
        <mxCell id="M1QpUfeUCg4roTGGK431-404" value="" style="verticalLabelPosition=bottom;verticalAlign=top;html=1;shape=mxgraph.basic.acute_triangle;dx=0.5;rotation=-180;fillColor=#B3B3B3;aspect=fixed;strokeColor=none;" vertex="1" parent="M1QpUfeUCg4roTGGK431-401">
          <mxGeometry x="160" y="46.13000000000011" width="8" height="6.74" as="geometry" />
        </mxCell>
        <mxCell id="M1QpUfeUCg4roTGGK431-405" value="" style="group;fontFamily=DM Sans;fontSource=https%3A%2F%2Ffonts.googleapis.com%2Fcss%3Ffamily%3DDM%2BSans;" vertex="1" connectable="0" parent="M1QpUfeUCg4roTGGK431-400">
          <mxGeometry x="201" width="180" height="70" as="geometry" />
        </mxCell>
        <mxCell id="M1QpUfeUCg4roTGGK431-406" value="&lt;font face=&quot;DM Sans&quot; data-font-src=&quot;https://fonts.googleapis.com/css?family=DM+Sans&quot;&gt;2024&lt;/font&gt;" style="rounded=1;arcSize=9;fillColor=#F7F8F9;align=left;spacingLeft=5;strokeColor=#DEE1E6;html=1;strokeWidth=2;fontSize=16;fontFamily=Helvetica;fontColor=#B3B3B3;labelBackgroundColor=none;" vertex="1" parent="M1QpUfeUCg4roTGGK431-405">
          <mxGeometry y="25" width="180" height="45" as="geometry" />
        </mxCell>
        <mxCell id="M1QpUfeUCg4roTGGK431-407" value="" style="verticalLabelPosition=bottom;verticalAlign=top;html=1;shape=mxgraph.basic.acute_triangle;dx=0.5;rotation=-180;fillColor=#B3B3B3;aspect=fixed;strokeColor=none;" vertex="1" parent="M1QpUfeUCg4roTGGK431-405">
          <mxGeometry x="159" y="46.13000000000011" width="8" height="6.74" as="geometry" />
        </mxCell>
        <mxCell id="M1QpUfeUCg4roTGGK431-411" value="&lt;font face=&quot;Courier New&quot;&gt;if a user refreshes page or leaves, give browser warning that things will be deleted!&lt;/font&gt;" style="rounded=1;whiteSpace=wrap;html=1;fillColor=#fff2cc;strokeColor=#d6b656;" vertex="1" parent="1">
          <mxGeometry x="1580" y="-110" width="150" height="90" as="geometry" />
        </mxCell>
      </root>
    </mxGraphModel>
  </diagram>
</mxfile>
